<?xml version="1.0" encoding="UTF-8" standalone="no"?>
<svg
   xmlns:dc="http://purl.org/dc/elements/1.1/"
   xmlns:cc="http://creativecommons.org/ns#"
   xmlns:rdf="http://www.w3.org/1999/02/22-rdf-syntax-ns#"
   xmlns:svg="http://www.w3.org/2000/svg"
   xmlns="http://www.w3.org/2000/svg"
   height="210mm"
   width="297mm"
   version="1.1"
   viewBox="0 0 1122.5196 793.70081"
   data-name="Layer 1"
   id="Layer_1">
  <metadata
     id="metadata22">
    <rdf:RDF>
      <cc:Work
         rdf:about="">
        <dc:format>image/svg+xml</dc:format>
        <dc:type
           rdf:resource="http://purl.org/dc/dcmitype/StillImage" />
        <dc:title>meetjs-logo-purple</dc:title>
      </cc:Work>
    </rdf:RDF>
  </metadata>
  <defs
     id="defs4">
    <style
       id="style2">
      .cls-1 {
        fill: #2b1c34;
      }

      .cls-2 {
        fill: #bddb59;
      }

      .cls-3 {
        fill: #249fab;
      }

      .cls-4 {
        fill: none;
      }
    </style>
  </defs>
  <title
     id="title6">meetjs-logo-purple</title>
  <g
     transform="translate(0,560.55079)"
     id="logo">
    <g
       style="stroke-width:0.63269144"
       transform="matrix(1.5805491,0,0,1.5805491,29.492001,-532.88931)"
       id="g1464">
      <g
         style="stroke-width:0.63269144"
         id="meet">
        <path
           id="m"
           class="cls-1"
           d="m 300.77,331.19 h -38.84 v -18.11 h 8.7 v -18.27 q 0,-8.26 -3.91,-12.61 -3.91,-4.35 -11,-4.35 -7.39,0 -13,7.54 a 43.77,43.77 0 0 1 0.72,7.68 v 20 h 9.86 v 18.12 h -38.7 v -18.11 h 8.7 v -18.27 q 0,-8.26 -3.91,-12.61 -3.91,-4.35 -11,-4.35 -6.52,0 -12.32,7.54 v 27.69 h 9.86 v 18.12 h -40 v -18.12 h 10 v -33.2 h -10 V 261.76 H 196 V 266 q 6.81,-6.38 17.1,-6.38 a 28.26,28.26 0 0 1 22.18,9.86 38.1,38.1 0 0 1 11.38,-7.54 36.88,36.88 0 0 1 13.84,-2.32 28.4,28.4 0 0 1 21.6,9.28 q 8.7,9.28 8.7,24.21 v 20 h 10 v 18.12 z"
           transform="translate(-84.55,-180.49)"
           style="fill:#2b1c34;stroke-width:0.63269144" />
        <path
           id="e1"
           class="cls-1"
           d="M 376.44,303.94 H 326 q 3.62,12.18 17.39,12.18 8.26,0 11.6,-5.22 h 21 a 29.15,29.15 0 0 1 -12,16.23 36.55,36.55 0 0 1 -21.24,6.23 q -16.52,0 -26.89,-10.51 -10.37,-10.51 -10.36,-26.31 0,-15.65 10.22,-25.95 10.22,-10.3 26.16,-10.29 15.36,0 25.15,9.64 9.79,9.64 9.78,25.15 a 65.26,65.26 0 0 1 -0.37,8.85 z M 331.8,279.44 A 18.65,18.65 0 0 0 326,289 h 31.89 a 17.08,17.08 0 0 0 -5.07,-9.57 14.55,14.55 0 0 0 -10.29,-3.62 15.84,15.84 0 0 0 -10.73,3.64 z"
           transform="translate(-84.55,-180.49)"
           style="fill:#2b1c34;stroke-width:0.63269144" />
        <path
           id="e2"
           class="cls-1"
           d="m 454.57,303.94 h -50.44 q 3.62,12.18 17.39,12.18 8.26,0 11.6,-5.22 h 21 a 29.15,29.15 0 0 1 -12,16.23 36.55,36.55 0 0 1 -21.24,6.23 q -16.52,0 -26.89,-10.51 -10.37,-10.51 -10.29,-26.3 0,-15.65 10.22,-25.95 10.22,-10.3 26.16,-10.29 15.36,0 25.15,9.64 9.79,9.64 9.77,25.15 a 65.26,65.26 0 0 1 -0.43,8.84 z m -44.64,-24.5 a 18.65,18.65 0 0 0 -5.8,9.57 H 436 a 17.08,17.08 0 0 0 -5.07,-9.57 14.54,14.54 0 0 0 -10.29,-3.62 15.84,15.84 0 0 0 -10.71,3.63 z"
           transform="translate(-84.55,-180.49)"
           style="fill:#2b1c34;stroke-width:0.63269144" />
        <path
           id="t"
           class="cls-1"
           d="m 521.69,330.18 a 64.12,64.12 0 0 1 -18.84,3.19 q -12.61,0 -20.22,-8.19 -7.61,-8.19 -7.63,-21.67 V 279.88 H 459.2 V 261.76 H 475 V 241 h 20.15 v 20.73 h 23.63 v 18.12 h -23.62 v 23.48 q 0,11.45 12,11.45 a 49.34,49.34 0 0 0 11.89,-1.88 z"
           transform="translate(-84.55,-180.49)"
           style="fill:#2b1c34;stroke-width:0.63269144" />
      </g>
      <rect
         id="dot"
         class="cls-2"
         x="447.41"
         y="130.39"
         width="20.32"
         height="20.32"
         style="fill:#bddb59;stroke-width:0.63269144" />
      <g
         style="stroke-width:0.63269144"
         id="js">
        <path
           id="j"
           class="cls-3"
           d="m 594.6,334.53 q 0,14.21 -5.36,21.53 -5.36,7.32 -20,12.54 l -7.68,-16.09 q 7.83,-4.06 10.36,-7.17 2.53,-3.11 2.54,-9.2 v -56.26 h -13.92 v -18.12 h 34.06 v 72.76 z m 0,-102.5 h -20.32 v 20.32 H 594.6 V 232 Z"
           transform="translate(-84.55,-180.49)"
           style="fill:#249fab;stroke-width:0.63269144" />
        <path
           id="s"
           class="cls-3"
           d="m 653.89,289.16 a 32.39,32.39 0 0 1 15.94,7.17 q 6.23,5.44 6.23,14.86 0,10.15 -7.32,16.16 -7.32,6.01 -19.64,6 a 37.7,37.7 0 0 1 -23.34,-7.54 v 5.36 h -18.11 v -24.62 h 17.68 a 53.33,53.33 0 0 0 9.93,8.55 20,20 0 0 0 10.8,2.75 q 9.13,0 9.13,-5.65 0,-4.93 -7.68,-6.38 l -11.45,-1.88 Q 610,299.3 610,281.33 q 0,-10.44 8,-16.09 8,-5.65 20.51,-5.65 10.87,0 17.54,5.51 v -3.62 h 18.12 v 22 h -17.82 q -3.91,-3.62 -5.51,-4.86 a 23.93,23.93 0 0 0 -4.64,-2.62 15.64,15.64 0 0 0 -6.52,-1.38 q -8.41,0 -8.41,5.51 0,5.07 9.28,6.81 z"
           transform="translate(-84.55,-180.49)"
           style="fill:#249fab;stroke-width:0.63269144" />
      </g>
    </g>
    <g
       style="stroke-width:1.09872365"
       transform="matrix(0.91014699,0,0,0.91014699,50.430889,-18.864709)"
       id="g1009">
      <path
         style="fill:#249fab;fill-opacity:1;stroke:none;stroke-width:6.70661545;stroke-linejoin:round;stroke-miterlimit:4;stroke-dasharray:none;stroke-opacity:1"
         id="path3160"
         d="M 501.7412,153.61653 424.32089,141.66697 346.90058,129.71741 395.95936,68.644231 445.01814,7.5710566 473.37967,80.593793 Z"
         transform="matrix(1.3684162,-1.2311244,-1.7035384,-0.98893607,136.36073,608.70497)" />
      <path
         style="fill:#249fab;fill-opacity:1;stroke:none;stroke-width:7.64045954;stroke-linejoin:round;stroke-miterlimit:4;stroke-dasharray:none;stroke-opacity:1"
         id="path3160-0"
         d="M 501.7412,153.61653 424.32089,141.66697 346.90058,129.71741 395.95936,68.644231 445.01814,7.5710566 473.37967,80.593793 Z"
         transform="matrix(0.69166073,-1.8766999,-0.86104696,-1.5075132,346.4962,1032.7667)" />
    </g>
  </g>
</svg>
