<svg id="Layer_1" data-name="Layer 1" xmlns="http://www.w3.org/2000/svg" viewBox="0 0 672.78 233.15">
  <defs>
    <style>
      .cls-1 {
        fill: #fff;
      }

      .cls-2 {
        fill: #bddb59;
      }

      .cls-3 {
        fill: #249fab;
      }

      .cls-4 {
        fill: none;
      }
    </style>
  </defs>
  <title>meetjs-logo-white</title>
  <g id="logo">
    <g id="meet">
      <path id="m" class="cls-1" d="M300.77,331.19H261.93V313.08h8.7V294.81q0-8.26-3.91-12.61t-11-4.35q-7.39,0-13,7.54a43.77,43.77,0,0,1,.72,7.68v20h9.86v18.12h-38.7V313.08h8.7V294.81q0-8.26-3.91-12.61t-11-4.35q-6.52,0-12.32,7.54v27.69h9.86v18.12h-40V313.08h10V279.88h-10V261.76H196V266q6.81-6.38,17.1-6.38a28.26,28.26,0,0,1,22.18,9.86,38.1,38.1,0,0,1,11.38-7.54,36.88,36.88,0,0,1,13.84-2.32,28.4,28.4,0,0,1,21.6,9.28q8.7,9.28,8.7,24.21v20h10v18.12Z" transform="translate(-84.55 -180.49)"/>
      <path id="e1" class="cls-1" d="M376.44,303.94H326q3.62,12.18,17.39,12.18,8.26,0,11.6-5.22h21a29.15,29.15,0,0,1-12,16.23,36.55,36.55,0,0,1-21.24,6.23q-16.52,0-26.89-10.51t-10.36-26.31q0-15.65,10.22-25.95t26.16-10.29q15.36,0,25.15,9.64t9.78,25.15A65.26,65.26,0,0,1,376.44,303.94Zm-44.64-24.5A18.65,18.65,0,0,0,326,289h31.89a17.08,17.08,0,0,0-5.07-9.57,14.55,14.55,0,0,0-10.29-3.62A15.84,15.84,0,0,0,331.8,279.45Z" transform="translate(-84.55 -180.49)"/>
      <path id="e2" class="cls-1" d="M454.57,303.94H404.13q3.62,12.18,17.39,12.18,8.26,0,11.6-5.22h21a29.15,29.15,0,0,1-12,16.23,36.55,36.55,0,0,1-21.24,6.23q-16.52,0-26.89-10.51T383.7,296.55q0-15.65,10.22-25.95t26.16-10.29q15.36,0,25.15,9.64T455,295.1A65.26,65.26,0,0,1,454.57,303.94Zm-44.64-24.5a18.65,18.65,0,0,0-5.8,9.57H436a17.08,17.08,0,0,0-5.07-9.57,14.54,14.54,0,0,0-10.29-3.62A15.84,15.84,0,0,0,409.93,279.45Z" transform="translate(-84.55 -180.49)"/>
      <path id="t" class="cls-1" d="M521.69,330.18a64.12,64.12,0,0,1-18.84,3.19q-12.61,0-20.22-8.19T475,303.51V279.88h-15.8V261.76H475V241h20.15v20.73h23.63v18.12H495.16v23.48q0,11.45,12,11.45a49.34,49.34,0,0,0,11.89-1.88Z" transform="translate(-84.55 -180.49)"/>
    </g>
    <rect id="dot" class="cls-2" x="447.41" y="130.39" width="20.32" height="20.32"/>
    <g id="js">
      <path id="j" class="cls-3" d="M594.6,334.53q0,14.21-5.36,21.53t-20,12.54l-7.68-16.09q7.83-4.06,10.36-7.17t2.54-9.2V279.88H560.54V261.76H594.6v72.76Zm0-102.5H574.28v20.32H594.6V232Z" transform="translate(-84.55 -180.49)"/>
      <path id="s" class="cls-3" d="M653.89,289.16a32.39,32.39,0,0,1,15.94,7.17q6.23,5.44,6.23,14.86,0,10.15-7.32,16.16t-19.64,6a37.7,37.7,0,0,1-23.34-7.54v5.36H607.65V306.55h17.68a53.33,53.33,0,0,0,9.93,8.55,20,20,0,0,0,10.8,2.75q9.13,0,9.13-5.65,0-4.93-7.68-6.38l-11.45-1.88Q610,299.3,610,281.33q0-10.44,8-16.09t20.51-5.65q10.87,0,17.54,5.51v-3.62h18.12v22H656.35q-3.91-3.62-5.51-4.86A23.93,23.93,0,0,0,646.2,276a15.64,15.64,0,0,0-6.52-1.38q-8.41,0-8.41,5.51,0,5.07,9.28,6.81Z" transform="translate(-84.55 -180.49)"/>
    </g>
    <rect id="safearea" class="cls-4" width="672.78" height="233.15"/>
  </g>
</svg>
