<svg width="347" height="113" viewBox="0 0 347 113" fill="none" xmlns="http://www.w3.org/2000/svg">
<path d="M122.938 68.3193V26.7726H147.83C149.979 26.7726 151.949 27.2203 153.739 28.0261C155.53 28.832 156.873 30.0856 157.858 31.6077C158.843 33.1299 159.38 34.9207 159.38 36.9802C159.38 38.5919 159.112 40.1141 158.485 41.3677C157.858 42.6212 157.052 43.6957 156.067 44.5911C155.083 45.397 153.918 46.0237 152.575 46.4715V46.7401C154.098 47.0982 155.441 47.6355 156.694 48.5309C157.858 49.4263 158.843 50.5903 159.56 51.9334C160.276 53.3661 160.634 54.9778 160.634 56.8581C160.634 59.3653 160.097 61.4247 158.933 63.126C157.769 64.8272 156.247 66.0808 154.366 66.9762C152.486 67.7821 150.337 68.2298 148.009 68.2298H122.938V68.3193ZM131.892 43.6062H145.054C146.128 43.6062 147.024 43.4271 147.83 42.9794C148.546 42.5317 149.173 41.9944 149.531 41.2781C149.889 40.5618 150.068 39.7559 150.068 38.8605C150.068 37.2488 149.621 36.0848 148.725 35.2789C147.83 34.473 146.755 34.0253 145.323 34.0253H131.802V43.6062H131.892ZM131.892 60.977H146.128C147.651 60.977 148.815 60.5293 149.8 59.7234C150.785 58.9176 151.232 57.5745 151.232 55.7837C151.232 54.7092 151.053 53.8138 150.605 53.0974C150.158 52.2916 149.621 51.7543 148.815 51.3066C148.009 50.8589 146.934 50.6798 145.77 50.6798H131.981V60.977H131.892Z" fill="white"/>
<path d="M171.201 68.3194V26.7726H195.108C198.153 26.7726 200.75 27.3099 202.809 28.3844C204.868 29.4589 206.391 30.981 207.376 32.9509C208.36 34.9208 208.898 37.1593 208.898 39.6665C208.898 42.3527 208.271 44.7703 207.107 46.8297C205.853 48.8891 204.152 50.5009 201.824 51.5753L210.33 68.2299H200.302L192.959 53.0975H180.245V68.2299H171.201V68.3194ZM180.155 46.0238H193.855C195.646 46.0238 197.078 45.4866 198.063 44.3226C199.048 43.2481 199.585 41.7259 199.585 39.8455C199.585 38.592 199.406 37.607 198.959 36.7116C198.511 35.8162 197.884 35.1894 196.989 34.7417C196.183 34.294 195.108 34.115 193.855 34.115H180.155V46.0238Z" fill="white"/>
<path d="M216.865 68.3194L233.609 26.7726H245.25L261.904 68.3194H251.696L248.563 60.1712H229.67L226.536 68.3194H216.865ZM232.445 52.9184H245.876L242.026 42.7108C241.847 42.2631 241.668 41.7259 241.399 41.0991C241.131 40.4723 240.952 39.756 240.683 39.0397C240.414 38.2338 240.146 37.5175 239.967 36.8012C239.698 36.0848 239.519 35.3685 239.34 34.7417H238.982C238.803 35.5476 238.534 36.443 238.176 37.428C237.818 38.4129 237.46 39.4874 237.191 40.3828C236.833 41.3677 236.564 42.0841 236.385 42.7108L232.445 52.9184Z" fill="white"/>
<path d="M277.127 68.3194L261.457 26.7726H271.665L280.977 53.2766C281.156 53.7243 281.335 54.2616 281.514 54.8883C281.693 55.5151 281.962 56.1419 282.141 56.7687C282.32 57.3955 282.499 57.9327 282.678 58.3804H283.036C283.215 57.9327 283.394 57.3955 283.574 56.8582C283.753 56.2314 283.932 55.6942 284.111 55.0674C284.29 54.4406 284.469 53.9034 284.648 53.3661L294.05 26.7726H303.81L288.051 68.3194H277.127Z" fill="white"/>
<path d="M311.422 68.3194V26.7726H345.805V34.115H320.555V43.3376H343.03V50.6799H320.555V60.798H346.164V68.2299H311.422V68.3194Z" fill="white"/>
<path d="M61.7836 50.9483H59.0974H55.6948H53.904H40.5625V64.3794H55.7844H59.6346H61.7836C62.5894 64.3794 63.3953 64.1108 64.0221 63.484C64.7384 62.8572 65.0966 61.9618 65.0966 60.9769V54.3509C65.0966 53.4555 64.7384 52.4705 64.0221 51.8437C63.3953 51.3065 62.5894 50.9483 61.7836 50.9483Z" fill="white"/>
<path d="M58.202 41.5466H61.6045C62.4104 41.5466 63.2162 41.278 63.843 40.6512C64.5593 40.0245 64.9175 39.1291 64.9175 38.1441V31.9658C64.9175 31.0704 64.5593 30.0855 63.843 29.4587C63.2162 28.9214 62.4104 28.5633 61.6045 28.5633H58.6497H54.7994H40.5625V41.3676H55.3367H58.202V41.5466Z" fill="white"/>
<path d="M0 0V82.2876L50.1426 113L100.285 82.2876V0H0ZM69.6624 74.229H24.1759V64.3796H28.4739V28.7425H24.1759V19.0721H69.1252L77.0943 27.0412V42.4422L72.7068 46.8296L77.542 51.6648L77.6315 66.2599L69.6624 74.229Z" fill="white"/>
</svg>
