<svg xmlns="http://www.w3.org/2000/svg" xmlns:xlink="http://www.w3.org/1999/xlink" width="1080" zoomAndPan="magnify" viewBox="0 0 810 809.999993" height="1080" preserveAspectRatio="xMidYMid meet" version="1.0"><defs><g/></defs><rect x="-81" width="972" fill="#ffffff" y="-80.999999" height="971.999992" fill-opacity="1"/><rect x="-81" width="972" fill="#ffffff" y="-80.999999" height="971.999992" fill-opacity="1"/><g fill="#000000" fill-opacity="1"><g transform="translate(82.721419, 450.211286)"><g><path d="M 44.015625 1.859375 C 32.523438 1.859375 23.421875 -1.34375 16.703125 -7.75 C 9.984375 -14.15625 6.625 -23.328125 6.625 -35.265625 L 6.625 -57.53125 C 6.625 -69.457031 9.984375 -78.625 16.703125 -85.03125 C 23.421875 -91.445312 32.523438 -94.65625 44.015625 -94.65625 C 55.410156 -94.65625 64.222656 -91.535156 70.453125 -85.296875 C 76.679688 -79.066406 79.796875 -70.519531 79.796875 -59.65625 L 79.796875 -58.859375 L 62.5625 -58.859375 L 62.5625 -60.1875 C 62.5625 -65.664062 61.035156 -70.171875 57.984375 -73.703125 C 54.941406 -77.234375 50.285156 -79 44.015625 -79 C 37.828125 -79 32.960938 -77.097656 29.421875 -73.296875 C 25.890625 -69.503906 24.125 -64.335938 24.125 -57.796875 L 24.125 -35 C 24.125 -28.539062 25.890625 -23.390625 29.421875 -19.546875 C 32.960938 -15.703125 37.828125 -13.78125 44.015625 -13.78125 C 50.285156 -13.78125 54.941406 -15.570312 57.984375 -19.15625 C 61.035156 -22.738281 62.5625 -27.222656 62.5625 -32.609375 L 62.5625 -35 L 79.796875 -35 L 79.796875 -33.140625 C 79.796875 -22.265625 76.679688 -13.710938 70.453125 -7.484375 C 64.222656 -1.253906 55.410156 1.859375 44.015625 1.859375 Z M 44.015625 1.859375 "/></g></g></g><g fill="#000000" fill-opacity="1"><g transform="translate(168.091638, 450.211286)"><g><path d="M 8.75 0 L 8.75 -92.796875 L 26.25 -92.796875 L 26.25 0 Z M 8.75 0 "/></g></g></g><g fill="#000000" fill-opacity="1"><g transform="translate(203.088126, 450.211286)"><g><path d="M 25.984375 0 L 2.390625 -92.796875 L 20.421875 -92.796875 L 40.03125 -11.265625 L 41.890625 -11.265625 L 61.515625 -92.796875 L 79.53125 -92.796875 L 55.9375 0 Z M 25.984375 0 "/></g></g></g><g fill="#000000" fill-opacity="1"><g transform="translate(285.011706, 450.211286)"><g><path d="M 8.75 0 L 8.75 -92.796875 L 26.25 -92.796875 L 26.25 0 Z M 8.75 0 "/></g></g></g><g fill="#000000" fill-opacity="1"><g transform="translate(320.008195, 450.211286)"><g><path d="M 8.75 0 L 8.75 -92.796875 L 26.25 -92.796875 L 26.25 -15.90625 L 68.671875 -15.90625 L 68.671875 0 Z M 8.75 0 "/></g></g></g><g fill="#000000" fill-opacity="1"><g transform="translate(391.85706, 450.211286)"><g><path d="M 49.046875 0 L 49.046875 -18.828125 L 3.453125 -18.828125 L 3.453125 -38.4375 L 35.53125 -92.796875 L 66.015625 -92.796875 L 66.015625 -33.9375 L 81.390625 -33.9375 L 81.390625 -18.828125 L 66.015625 -18.828125 L 66.015625 0 Z M 19.625 -33.9375 L 49.046875 -33.9375 L 49.046875 -81.921875 L 46.65625 -81.921875 L 19.625 -36.0625 Z M 19.625 -33.9375 "/></g></g></g><g fill="#000000" fill-opacity="1"><g transform="translate(476.166801, 450.211286)"><g><path d="M 5.5625 0 L 5.5625 -11.140625 C 5.5625 -17.585938 6.625 -22.953125 8.75 -27.234375 C 10.875 -31.523438 13.945312 -35.0625 17.96875 -37.84375 C 21.988281 -40.625 26.914062 -42.898438 32.75 -44.671875 L 41.625 -47.453125 C 44.894531 -48.515625 47.632812 -49.816406 49.84375 -51.359375 C 52.050781 -52.910156 53.75 -54.789062 54.9375 -57 C 56.132812 -59.207031 56.734375 -61.726562 56.734375 -64.5625 L 56.734375 -65.09375 C 56.734375 -69.507812 55.226562 -73.019531 52.21875 -75.625 C 49.21875 -78.226562 45.113281 -79.53125 39.90625 -79.53125 C 34.78125 -79.53125 30.644531 -78.140625 27.5 -75.359375 C 24.363281 -72.578125 22.796875 -68.578125 22.796875 -63.359375 L 22.796875 -60.984375 L 5.828125 -60.984375 L 5.828125 -63.09375 C 5.828125 -69.8125 7.328125 -75.507812 10.328125 -80.1875 C 13.335938 -84.875 17.425781 -88.457031 22.59375 -90.9375 C 27.769531 -93.414062 33.539062 -94.65625 39.90625 -94.65625 C 46.269531 -94.65625 52.015625 -93.4375 57.140625 -91 C 62.265625 -88.570312 66.304688 -85.171875 69.265625 -80.796875 C 72.222656 -76.421875 73.703125 -71.273438 73.703125 -65.359375 L 73.703125 -64.03125 C 73.703125 -58.101562 72.484375 -53.082031 70.046875 -48.96875 C 67.617188 -44.863281 64.328125 -41.507812 60.171875 -38.90625 C 56.023438 -36.300781 51.300781 -34.160156 46 -32.484375 L 37.515625 -29.828125 C 33.710938 -28.679688 30.75 -27.421875 28.625 -26.046875 C 26.507812 -24.679688 25.03125 -23.179688 24.1875 -21.546875 C 23.351562 -19.910156 22.9375 -17.941406 22.9375 -15.640625 L 22.9375 -15.109375 L 72.90625 -15.109375 L 72.90625 0 Z M 5.5625 0 "/></g></g></g><g fill="#ff4500" fill-opacity="1"><g transform="translate(554.916707, 450.211286)"><g><path d="M 19.890625 1.859375 C 16.265625 1.859375 13.234375 0.6875 10.796875 -1.65625 C 8.367188 -4 7.15625 -7.023438 7.15625 -10.734375 C 7.15625 -14.453125 8.367188 -17.476562 10.796875 -19.8125 C 13.234375 -22.15625 16.265625 -23.328125 19.890625 -23.328125 C 23.421875 -23.328125 26.378906 -22.15625 28.765625 -19.8125 C 31.148438 -17.476562 32.34375 -14.453125 32.34375 -10.734375 C 32.34375 -7.023438 31.148438 -4 28.765625 -1.65625 C 26.378906 0.6875 23.421875 1.859375 19.890625 1.859375 Z M 19.890625 1.859375 "/></g></g></g><g fill="#ff4500" fill-opacity="1"><g transform="translate(594.420314, 450.211286)"><g><path d="M 8.75 0 L 8.75 -92.796875 L 46.921875 -92.796875 C 52.753906 -92.796875 57.898438 -91.625 62.359375 -89.28125 C 66.828125 -86.9375 70.320312 -83.644531 72.84375 -79.40625 C 75.363281 -75.164062 76.625 -70.128906 76.625 -64.296875 L 76.625 -62.4375 C 76.625 -56.695312 75.316406 -51.679688 72.703125 -47.390625 C 70.097656 -43.109375 66.5625 -39.796875 62.09375 -37.453125 C 57.632812 -35.109375 52.578125 -33.9375 46.921875 -33.9375 L 26.25 -33.9375 L 26.25 0 Z M 26.25 -49.84375 L 45.203125 -49.84375 C 49.359375 -49.84375 52.71875 -50.988281 55.28125 -53.28125 C 57.84375 -55.582031 59.125 -58.722656 59.125 -62.703125 L 59.125 -64.03125 C 59.125 -68.007812 57.84375 -71.144531 55.28125 -73.4375 C 52.71875 -75.738281 49.359375 -76.890625 45.203125 -76.890625 L 26.25 -76.890625 Z M 26.25 -49.84375 "/></g></g></g><g fill="#ff4500" fill-opacity="1"><g transform="translate(674.48804, 450.211286)"><g><path d="M 8.75 0 L 8.75 -92.796875 L 26.25 -92.796875 L 26.25 -15.90625 L 68.671875 -15.90625 L 68.671875 0 Z M 8.75 0 "/></g></g></g></svg>