<svg xmlns="http://www.w3.org/2000/svg" viewBox="94.6 73.245 445.9 255.268" preserveAspectRatio="xMidYMid meet" role="img" aria-label="Młodzi 4IT Logo">
    <path fill="currentColor" d="M330.5 74.4c-18.5 3.6-36.8 13-50.2 25.9l-6.3 6-7.7-3.6c-11.7-5.3-18.4-6.8-32.8-7.4-10-.4-15-.1-21.5 1.2-26.7 5.4-49.4 21.9-62.4 45.7-6.2 11.2-9.4 22.6-11.1 40l-.6 5.6-6.7 3.8c-8.5 4.9-22.5 18.9-27.5 27.4-2.1 3.6-5 10.1-6.4 14.5-2.4 7.1-2.7 9.5-2.7 22 0 13.1.2 14.6 3.1 22.8 4.3 12.3 8.5 18.9 18.3 28.7 6.8 6.9 10.3 9.5 17.5 13.2 17.8 9 2.4 8.3 178 8.3h155l9-2.8c33.8-10.6 55.3-33.5 63.7-67.7 2.1-8.8 1.6-28.8-1.1-39-4.7-18.5-15.4-35.5-29.4-46.7-15.4-12.3-31.3-18.7-50.5-20.1l-8.3-.7-2.9-8.8c-5.6-16.7-13.4-28.9-26.1-41.3-12.7-12.3-27.6-20.8-44.4-25.4-10.2-2.8-35.2-3.7-46-1.6m37.3 15.1c26.9 5.6 49 23 60.7 47.6 3.2 6.9 8.5 24.8 8.5 29 0 1.6.8 1.7 10.3 1.2 17.1-1 31.9 2.9 45.2 11.8 14.8 9.9 25.8 25.1 30.6 42.5 2.9 10.3 3.2 26.9.6 36.4-5.7 21-20.2 38.9-39.2 48-16.7 8.1-1.8 7.4-170.5 7.7-166.9.4-158.4.7-172.4-6.2-7.4-3.6-19-13-18-14.6.3-.5 68.2-.9 168.1-.9h167.7l3.1 3.4c6 6.6 14.9 5.6 20.3-2.4 4-5.9 1.4-13.6-5.9-17.2-4.9-2.5-10.2-1.4-14.3 2.8l-3.3 3.4h-17.7c-9.7 0-17.6-.2-17.6-.5s4.1-6.4 9.1-13.5l9.1-13h33.6l4 4c3.5 3.5 4.5 4 8.6 4 8.2 0 13-4 14.1-11.7.7-4.8-1.8-9.9-6.4-13-5.8-3.9-13.4-2.5-17.9 3.2l-2 2.5h-39.1l-5.9 8.2c-3.2 4.6-9.2 13.1-13.2 19l-7.4 10.8H115.1l-1.9-5.3c-6.5-17.4-5-35.3 4.3-51.3 4.4-7.6 14.9-17.4 23.4-21.7l7.3-3.7h20.7l20.6.1 20.5 29.4 20.5 29.5h62.2l2.6 3.9c9 13.6 30.6 12.2 37.7-2.4 8.1-16.8-7.1-35.4-25-30.6-5.3 1.4-10.6 5.3-12.9 9.2l-1.6 2.9h-54.2l-13.8-19.7c-7.5-10.8-13.9-20.3-14.2-21-.4-1.1 4.8-1.3 27.6-1.3H267l4.7 4.9c7.6 7.8 15.7 9 24.8 3.6 13.2-7.7 13.1-26.4-.3-34.2-8.8-5.2-20.5-2.9-26.1 5.3l-2.4 3.4H154v-4.3c0-5 3.4-19.3 5.1-21.3.9-1.2 14.5-1.4 77.9-1.4h76.8l16.9 24.2 16.9 24.3 25.5.3 25.5.2 1.8 3c3.5 6 13.6 8.7 20.9 5.6 1.8-.7 4.7-2.9 6.4-4.9 11.2-12.7-1.8-32.6-18-27.7-2.6.7-5.8 2.9-8.5 5.6L397 191l-21.3-.2-21.2-.3-11.2-16c-6.2-8.8-11.3-16.6-11.3-17.3 0-.9 5.1-1.2 22.4-1.2h22.4l2.6 3.5c3.4 4.4 7.4 6.5 12.6 6.5 12 0 20.1-12 15-22.4-5.2-10.9-20-12.9-27.1-3.7l-2.5 3.2-104.9-.1c-57.7 0-105-.2-105.2-.4-.9-.9 10.1-12.7 15.8-17 13-9.8 26.2-14.6 42-15.4 17.4-.8 30.9 2.7 45.5 11.9l6.7 4.3 4.1-5c13.8-16.8 32.6-28.6 51.1-31.9 9.6-1.8 27-1.8 35.3 0m30.1 56.1c1.2 1.5 2.1 3.4 2.1 4.4s-.9 2.9-2.1 4.4c-4.1 5.2-12.2 2.3-12.2-4.4s8.1-9.6 12.2-4.4m-105.4 39.9c5.4 5.3 1.7 14.7-5.9 14.7-5.2 0-8.6-3.3-8.6-8.4 0-5.2 3.5-8.8 8.5-8.8 2.5 0 4.4.8 6 2.5m127.6 6.4c3.6 3.6 3.7 7 .3 11-5.1 6.1-14.4 2.6-14.4-5.3 0-2.6.7-4 3.1-6 4-3.4 7.4-3.3 11 .3M318 241.5c3.2 1.7 6 6.1 6 9.5 0 5.2-5.1 10-10.5 10s-10.5-4.8-10.5-10c0-5.1 5.4-10.9 10.3-11 1 0 3.1.7 4.7 1.5m175.9 4.1c2.6 3.3 2.7 5.8.1 8.4-4.1 4.1-11 1.4-11-4.3 0-6.5 7-9.1 10.9-4.1m-18.4 37.9c1.4 1.3 2.5 3.1 2.5 4 0 2.1-3.6 5.5-6 5.5s-6-3.4-6-5.5c0-1.8 4.4-6.5 6-6.5.6 0 2.2 1.1 3.5 2.5"/>
</svg>
