<?xml version="1.0" encoding="UTF-8"?>
<svg width="233px" height="22px" viewBox="0 0 233 22" version="1.1" xmlns="http://www.w3.org/2000/svg" xmlns:xlink="http://www.w3.org/1999/xlink">
    <title>Combined Shape</title>
    <g id="Page-1" stroke="none" stroke-width="1" fill="none" fill-rule="evenodd">
        <g id="Artboard" fill="#000000" fill-rule="nonzero">
            <path d="M93.3560627,14.6278409 C93.8957984,14.6278409 94.3671378,14.7201705 94.7700808,14.9048295 C95.1730238,15.0894886 95.4872994,15.3464744 95.7129075,15.6757868 C95.9385156,16.0050992 96.0544084,16.3858939 96.0605859,16.8181707 L96.0605859,16.8181707 L94.586143,16.8181707 L94.5641357,16.6804686 C94.5144522,16.4597762 94.3997454,16.283139 94.2200153,16.1505571 C94.0043393,15.9914588 93.7125635,15.9119096 93.344688,15.9119096 C93.093741,15.9119096 92.8814959,15.9473008 92.7079526,16.0180831 C92.5344093,16.0888653 92.4024161,16.1855783 92.3119731,16.308222 C92.2215301,16.4308657 92.1756058,16.5705529 92.1742001,16.7272838 C92.1713518,16.8574922 92.1996407,16.9712487 92.2590667,17.0685536 C92.3184928,17.1658584 92.4017133,17.2494303 92.5087283,17.3192694 C92.6157432,17.3891084 92.7390897,17.449117 92.8787678,17.4992953 C93.0184458,17.5494736 93.1671126,17.5923184 93.3247683,17.6278298 L93.3247683,17.6278298 L93.9781774,17.7840798 L94.2112207,17.8418309 C94.4393812,17.9040659 94.6528933,17.979753 94.8517569,18.068892 C95.1169084,18.1877441 95.3470202,18.3337014 95.5420923,18.5067638 C95.7371644,18.6798262 95.8885593,18.8835449 95.9962771,19.1179199 C96.1039949,19.3522949 96.1585751,19.6207571 96.1600178,19.9233066 C96.1585751,20.3674205 96.045882,20.7523582 95.8219385,21.0781195 C95.5979949,21.4038807 95.2759143,21.6560114 94.8556965,21.8345115 C94.4354787,22.0130116 93.9289609,22.1022616 93.336143,22.1022616 C92.7485409,22.1022616 92.2377692,22.01254 91.8038277,21.8330966 C91.3698862,21.6536532 91.0318254,21.3869666 90.7896453,21.0330367 C90.5474652,20.6791067 90.4199757,20.2400605 90.4071769,19.715898 L90.4071769,19.715898 L91.8958243,19.715898 L91.9122439,19.857079 C91.9427718,20.0388409 92.0078405,20.1946855 92.1074498,20.3246127 C92.2319616,20.4870217 92.3985043,20.6089441 92.6070781,20.6903797 C92.8156519,20.7718154 93.0529954,20.8125333 93.3191087,20.8125333 C93.5800062,20.8125333 93.8065761,20.7748857 93.9988184,20.6995905 C94.1910606,20.6242953 94.3404488,20.5194166 94.4469829,20.3849543 C94.553517,20.250492 94.6074868,20.0947044 94.6088925,19.9175914 C94.6074868,19.7542392 94.5588437,19.6170488 94.462963,19.5060203 C94.3670823,19.3949918 94.2275152,19.3002948 94.0442618,19.2219294 C93.8610084,19.1435639 93.6372868,19.072421 93.373097,19.0085005 L93.373097,19.0085005 L92.5804723,18.8124667 L92.3564208,18.7525803 C91.8477856,18.6036146 91.4382109,18.3900341 91.1276969,18.1118386 C90.7728237,17.7939009 90.5961084,17.3664699 90.5975511,16.8295455 C90.5961084,16.3896854 90.7145906,16.0048588 90.9529976,15.6750655 C91.1914046,15.3452722 91.5188213,15.0882864 91.9352475,14.9041082 C92.3516737,14.71993 92.8252788,14.6278409 93.3560627,14.6278409 Z M88.709238,14.7272727 L88.709238,19.7982955 L88.7022648,19.9957804 C88.6755769,20.3831102 88.57244,20.7245991 88.3928539,21.020247 C88.1833369,21.3651696 87.8926153,21.6312644 87.5206893,21.8185314 C87.1487633,22.0057983 86.7173094,22.0994318 86.2263278,22.0994318 C85.7873926,22.0994318 85.3901369,22.0216582 85.0345609,21.8661111 C84.6789849,21.7105639 84.3967898,21.4740619 84.1879756,21.1566051 C83.9791613,20.8391483 83.8754756,20.4384618 83.8769034,19.9545455 L83.8769034,19.9545455 L85.4081238,19.9545455 L85.4179068,20.0931733 C85.4342822,20.2266079 85.4704352,20.344463 85.5263656,20.4467385 C85.6009394,20.5831058 85.704394,20.6871615 85.8367293,20.7589056 C85.9690647,20.8306496 86.1244916,20.8665217 86.3030102,20.8665217 C86.4924041,20.8665217 86.6527971,20.826035 86.7841892,20.7450617 C86.9155812,20.6640884 87.0156049,20.5441728 87.0842602,20.3853149 C87.1529155,20.2264571 87.1879645,20.0307839 87.1894071,19.7982955 L87.1894071,19.7982955 L87.1894071,14.7272727 L88.709238,14.7272727 Z M81.4886475,20.3948864 C81.7149584,20.3948864 81.913221,20.477515 82.0834351,20.6427723 C82.2536492,20.8080296 82.3394775,21.0066621 82.3409202,21.2386697 C82.3394775,21.3958444 82.2991019,21.5389441 82.2197931,21.6679688 C82.1404844,21.7969934 82.0369096,21.8997359 81.9090687,21.9761963 C81.7812278,22.0526567 81.6410874,22.0908869 81.4886475,22.0908869 C81.2537916,22.0908869 81.0526715,22.0079161 80.8852872,21.8419744 C80.7179029,21.6760328 80.6349321,21.4749312 80.6363747,21.2386697 C80.6349321,21.0066621 80.7179029,20.8080296 80.8852872,20.6427723 C81.0526715,20.477515 81.2537916,20.3948864 81.4886475,20.3948864 Z M3.94027433,0.181818182 L13.3665439,13.9035756 L13.5539773,13.9035756 L13.5539773,0.181818182 L18.1477606,0.181818182 L18.1477606,22 L14.1592241,22 L4.67319558,8.2697532 L4.51139693,8.2697532 L4.51139693,22 L-0.0993652344,22 L-0.0993652344,0.181818182 L3.94027433,0.181818182 Z M37.6504902,0.181818182 L37.6504902,3.98292125 L27.5597142,3.98292125 L27.5597142,9.18178489 L36.8921006,9.18178489 L36.8921006,12.982888 L27.5597142,12.982888 L27.5597142,18.1988969 L37.6931038,18.1988969 L37.6931038,22 L22.9489521,22 L22.9489521,0.181818182 L37.6504902,0.181818182 Z M46.6447241,0.181818182 L51.0425845,7.62222567 L51.2130391,7.62222567 L55.6363678,0.181818182 L60.8437209,0.181818182 L54.1873377,11.0909091 L60.9970301,22 L55.6874709,22 L51.2130391,14.5511031 L51.0425845,14.5511031 L46.5681527,22 L41.2840618,22 L48.110733,11.0909091 L41.4119027,0.181818182 L46.6447241,0.181818182 Z M81.8464068,0.181818182 L81.8464068,3.98292125 L75.1645553,3.98292125 L75.1645553,22 L70.6050627,22 L70.6050627,3.98292125 L63.9232112,3.98292125 L63.9232112,0.181818182 L81.8464068,0.181818182 Z M109.599365,0.181818182 L113.213035,15.3437833 L113.400468,15.3437833 L117.380682,0.181818182 L121.693149,0.181818182 L125.673196,15.3694181 L125.860795,15.3694181 L129.474465,0.181818182 L134.511197,0.181818182 L128.264138,22 L123.772727,22 L119.622059,7.73275479 L119.451605,7.73275479 L115.301103,22 L110.809692,22 L104.562467,0.181818182 L109.599365,0.181818182 Z M152.67593,0.181818182 L152.67593,3.98292125 L142.585154,3.98292125 L142.585154,9.18178489 L151.917541,9.18178489 L151.917541,12.982888 L142.585154,12.982888 L142.585154,18.1988969 L152.718544,18.1988969 L152.718544,22 L137.974392,22 L137.974392,0.181818182 L152.67593,0.181818182 Z M172.050913,0.181818182 L172.050913,3.98292125 L161.960137,3.98292125 L161.960137,9.18178489 L171.292523,9.18178489 L171.292523,12.982888 L161.960137,12.982888 L161.960137,18.1988969 L172.093526,18.1988969 L172.093526,22 L157.349375,22 L157.349375,0.181818182 L172.050913,0.181818182 Z M181.335119,0.181818182 L181.335119,9.80401056 L181.616269,9.80401056 L189.474324,0.181818182 L194.996951,0.181818182 L186.90885,9.94883034 L195.099157,22 L189.57653,22 L183.602131,13.033991 L181.335119,15.795388 L181.335119,22 L176.724357,22 L176.724357,0.181818182 L181.335119,0.181818182 Z M203.019732,0.181818182 L203.019732,18.1988969 L212.369098,18.1988969 L212.369098,22 L198.40897,22 L198.40897,0.181818182 L203.019732,0.181818182 Z M217.536677,0.181818182 L222.513983,9.57396351 L222.718562,9.57396351 L227.695868,0.181818182 L232.869097,0.181818182 L224.908836,14.2869318 L224.908836,22 L220.323709,22 L220.323709,14.2869318 L212.363448,0.181818182 L217.536677,0.181818182 Z" id="Combined-Shape"></path>
        </g>
    </g>
</svg>