<svg xmlns="http://www.w3.org/2000/svg" id="a" viewBox="0 0 671.66 153.64"><defs><style>.b{fill:#ffcc07}.c{fill:#7eae2a}.e{fill:#1f99d6}</style></defs><path d="M3.49 104.25a7.72 7.72 0 0 1 9.18 2.08c3.06 3.3 6.73 5.02 10.77 5.02 3.79 0 7.34-.61 7.34-3.55 0-2.45-1.47-3.3-5.63-4.65C7.61 97.57 1.11 92.59 1.66 81.73c.4-17.37 33.76-22.53 42.71-6.85 4.76 9.06-6.63 12.74-12.36 7.34-2.45-1.84-4.65-2.57-6.85-2.57-7.28-.18-8.8 5.56-1.35 7.47l8.69 2.94c13.83 4.53 15.54 13.46 15.54 17.13 0 12.12-12.73 17.87-24.72 17.87-9.18 0-19.95-3.79-22.89-12.24-1.22-3.55.24-7.34 3.06-8.57ZM61.75 35.59c13.83.3 13.71 19.6 0 19.95-14.02-.44-14.13-19.56 0-19.95Zm8.57 81.26c0 4.28-3.92 7.59-8.57 7.59s-8.44-3.43-8.57-7.59v-43.2c.61-9.96 16.73-10.07 17.13 0v43.2h.01ZM124.2 119.69c-20.02 12.46-49.96 2.02-49.57-24.72.05-39.21 59.48-39.14 59.11.49a5.3 5.3 0 0 1-5.26 5.26H91.64c1.5 9.88 16.61 11.91 23.99 6.73 9.35-6.33 17.83 6.5 8.57 12.24Zm-7.59-29.62c-1.27-14.06-22.73-13.85-24.72 0h24.72Z" class="c"/><path d="M201.55 94.97c0-17.99 13.34-29.5 29.98-29.5 40.19.02 39.84 59.19 0 59.36-16.64 0-29.98-11.87-29.98-29.86Zm42.96 0c-.15-17.13-25.64-17.25-25.82 0 .24 17.73 25.61 17.6 25.82 0ZM168.54 65.48c-16.13 0-29.16 10.8-29.95 27.85-.13.5-.21 1.01-.22 1.53v49.23c.12 4.16 4.04 7.59 8.57 7.59s8.57-3.3 8.57-7.59v-21.94c19.33 8.65 43.68-3.96 43.14-27.17 0-17.99-13.46-29.49-30.11-29.49Zm0 42.82c-16.86-.3-17.21-26.09 0-26.31 17.38.19 17.02 26.05 0 26.31ZM422.17 91.56c-3.46-36.24-60.46-33.99-59.92 3.41-.66 24.03 25.47 36.55 44.79 26.32 4.52 5.64 15.31 2.9 15.3-4.54V93.06c0-.52-.06-1.02-.17-1.51Zm-29.94 16.76c-16.86-.3-17.21-26.09 0-26.31 17.38.19 17.02 26.05 0 26.31ZM552.39 91.56c-3.46-36.24-60.46-33.99-59.92 3.41-.66 24.03 25.47 36.55 44.79 26.32 4.52 5.64 15.31 2.9 15.3-4.54V93.06c0-.52-.06-1.02-.17-1.51Zm-29.94 16.76c-16.86-.3-17.21-26.09 0-26.31 17.38.19 17.02 26.05 0 26.31ZM487.57 94.97c0-38.73-60.38-39.18-60.09 0-.59 23.5 24.27 36.07 43.61 26.9-.68 8.56-4.89 14.69-15.57 14.69-4.59 0-9.42-2.78-12.57-6.16-2.3-2.54-7.37-3.14-10.39-.36-10.16 10.88 12.93 22.58 22.96 21.63 20.06 0 32.07-11.57 32.07-35.83l-.02-20.87Zm-30.11 13.34c-16.86-.3-17.21-26.09 0-26.31 17.38.19 17.02 26.05 0 26.31Z" class="e"/><path fill="#cd141a" d="M357.24 84.03c-4.52-23.9-28.15-28.9-44.83-12.85-15.68-17.73-42.74-11.64-46.15 12.81-1.78 12.78 4.18 25.44 12.82 34.89 4.36 4.55 11.99 11.97 18.96 11.18 7.89-2.09 1.28-9.72-4.28-16.5-10.45-12.62-11.15-18.8-11.57-22.5-.7-5.68 1.98-11.02 6.33-12.56 5.88-2.43 11.58 1.35 14.83 7.28 1.8 2.85 3.49 5.54 8.08 6.23 4.56.68 7.03-2.51 9.89-6.21 2.73-3.51 7.46-8.25 14.64-5.12 6.54 3.04 7.08 14.76 3.48 23.37-8.42 18.36-17.4 25.3-32.33 36.4-5.64 3.97-10.59 9.4-5.57 12.45 5.77 1.97 11.63-.16 19.19-4.41 20.18-12.3 41.03-38.79 36.51-64.46Z"/><path d="M281.31 10.77c4.83 5.95 8.61 13.73 11.25 21.04a48.38 48.38 0 0 1 2.58 10.88 6.87 6.87 0 0 1-6.49 7.25c-4.46.15-6.28-3.03-8.71-6.59-4.98-7.9-8.97-17.84-10.43-27.04-1.2-6.76 7.47-10.73 11.8-5.54ZM353.67 15.73c-1.6 10.97-6.3 23.1-12.75 32.1a6.96 6.96 0 0 1-12.77-5.27c1.76-10.93 6.98-22.84 13.58-31.76 4.14-5.26 12.71-1.62 11.94 4.92ZM316.88 4.57c2.44 8 3.23 17.4 3.15 25.89-.08 4.08-.53 8.74-1.41 12.11a6.81 6.81 0 0 1-8.43 4.67c-4.59-1.45-5-5.47-6.04-9.96-1.89-10.03-2.13-21.69-.26-31.69 1.11-6.91 10.91-7.6 13-1.02ZM380.3 42.7c-5.1 8.03-13.61 15.83-22.46 19.33-5.69 1.99-11.19-4.55-8.43-9.79 4.78-8.23 13.76-15.49 22.46-19.33 5.89-2.43 11.66 4.42 8.43 9.79ZM250.83 33.26c8.45 3.45 17.04 10.12 22.21 17.64a7.08 7.08 0 0 1-2.34 10.63c-7.58 4.19-24.1-11.79-27.88-17.98-3.75-5.37 1.99-12.6 8.01-10.29Z" class="b"/><path d="M617.53 65.58c-16.6 0-29.89 11.46-29.95 29.35v49.18c.61 9.95 16.71 10.06 17.12 0v-21.84c19.3 8.5 43.45-4.11 42.91-27.22 0-17.97-13.45-29.46-30.08-29.46Zm0 42.78c-16.84-.3-17.19-26.06 0-26.29 17.36.19 17.01 26.03 0 26.29ZM671.66 116.52c-.4 10.03-16.5 9.97-17.12 0V47.64c.61-9.94 16.71-10.06 17.12 0v68.88ZM578.26 116.52c-.46 10.37-17.23 9.81-17.12-.58.69-10.28 17.4-9.91 17.12.58Z" class="e"/></svg>
