<svg width="229" height="127" viewBox="0 0 229 127" fill="none" xmlns="http://www.w3.org/2000/svg">
<path d="M191.438 68.9248C195.875 68.9248 198.909 70.8942 200.805 73.7627C202.676 76.5947 203.414 80.2611 203.414 83.6904L203.417 87.0195C203.418 88.1801 202.478 89.1221 201.317 89.1221H197.087C195.928 89.1219 194.988 88.1819 194.987 87.0225L194.986 82.6875C194.986 80.8863 194.641 79.4411 194.021 78.4619C193.421 77.5168 192.554 76.9778 191.358 76.9502C190.182 76.9231 189.278 77.4584 188.633 78.5059C187.966 79.5887 187.578 81.2264 187.578 83.3125V109.812C187.578 111.36 187.893 112.684 188.529 113.601C189.14 114.48 190.091 115.05 191.562 115.05C192.699 115.05 193.535 114.561 194.112 113.732C194.708 112.879 195.048 111.63 195.049 110.132L195 104.731C194.989 103.564 195.932 102.612 197.1 102.612H201.332C202.492 102.612 203.433 103.553 203.433 104.713V109.054C203.433 111.039 203.299 114.071 201.954 116.79C200.583 119.561 197.984 121.94 193.226 122.63L193.224 122.631C193.223 122.631 193.221 122.631 193.22 122.631C193.216 122.631 193.212 122.632 193.206 122.633C193.195 122.634 193.179 122.637 193.159 122.64C193.119 122.645 193.06 122.651 192.987 122.659C192.841 122.675 192.634 122.696 192.381 122.712C191.877 122.744 191.185 122.761 190.442 122.699L190.432 122.698L190.42 122.697C187.035 122.31 184.232 121.186 182.288 118.913C180.471 116.788 179.49 113.756 179.374 109.648L179.362 108.812V83.0166C179.362 78.3426 180.716 74.8086 182.942 72.4375C185.17 70.0655 188.208 68.9248 191.438 68.9248Z" fill="#F92431"/>
<path d="M224.735 69.9951C225.897 69.9959 226.837 70.9399 226.834 72.1016L226.823 75.8496C226.82 77.0063 225.881 77.9425 224.725 77.9434L215.553 77.9502C215.166 77.9504 214.853 78.2639 214.853 78.6504V90.4814C214.853 90.8692 215.168 91.1826 215.556 91.1807L222.479 91.1445C223.642 91.1387 224.589 92.0812 224.589 93.2451V97.2158C224.589 98.3756 223.649 99.3163 222.489 99.3164H215.509C215.122 99.3164 214.809 99.6292 214.809 100.016V113.667C214.809 114.053 215.121 114.366 215.507 114.367L225.109 114.399L225.324 114.411C226.38 114.522 227.203 115.414 227.203 116.499V120.392C227.203 121.551 226.262 122.491 225.103 122.491H208.525C207.366 122.491 206.425 121.551 206.425 120.392V71.6875C206.425 70.7486 207.186 69.9873 208.125 69.9873L224.735 69.9951Z" fill="#F92431"/>
<path fill-rule="evenodd" clip-rule="evenodd" d="M167.412 69.9561C168.236 69.9561 168.942 70.5479 169.086 71.3584L177.793 120.296C177.978 121.337 177.177 122.293 176.12 122.294H171.17C170.343 122.294 169.636 121.698 169.495 120.883L167.916 111.74C167.891 111.598 167.766 111.492 167.619 111.492H160.398L160.345 111.497C160.223 111.519 160.126 111.614 160.104 111.738L158.463 120.803C158.317 121.611 157.613 122.2 156.791 122.2H151.774C150.716 122.2 149.914 121.242 150.102 120.199L158.897 71.3555C159.043 70.5463 159.748 69.9562 160.57 69.9561H167.412ZM161.025 103.455C160.998 103.636 161.138 103.799 161.321 103.8H166.523C166.707 103.8 166.848 103.637 166.82 103.455L163.934 84.5029L161.025 103.455Z" fill="#F92431"/>
<path fill-rule="evenodd" clip-rule="evenodd" d="M135.125 69.9893C137.754 69.9893 141.088 70.3224 143.768 72.2998C146.49 74.3089 148.388 77.8964 148.388 84.0625C148.388 89.1763 147.579 92.4864 146.514 94.7246C145.441 96.9783 144.13 98.0926 143.265 98.8281L143.258 98.835L143.241 98.8477C143.246 98.8433 143.244 98.8427 143.24 98.8564C143.236 98.8717 143.234 98.8928 143.239 98.9131L143.553 100.139L148.685 120.108C148.961 121.184 148.148 122.231 147.038 122.231H142.458C141.501 122.231 140.666 121.584 140.426 120.658L135.329 100.987C135.299 100.872 135.204 100.786 135.089 100.767L135.039 100.763H133.103C132.717 100.763 132.403 101.076 132.403 101.463V120.131C132.403 121.291 131.463 122.231 130.303 122.231H126.213C125.053 122.231 124.112 121.291 124.112 120.131V72.1016C124.112 70.9429 125.051 70.0025 126.21 70.001L135.125 69.9893ZM133.103 77.7002C132.716 77.7002 132.402 78.0138 132.402 78.4004V92.2051L132.416 92.3467C132.482 92.6659 132.766 92.9053 133.104 92.9043L136.505 92.8936C136.971 92.8792 137.756 92.9705 138.53 92.2461C139.284 91.5401 140.137 89.9203 140.241 86.1826L140.252 85.4062C140.252 81.107 139.379 79.2381 138.579 78.4248C137.811 77.6436 136.989 77.7002 136.507 77.7002H133.103Z" fill="#F92431"/>
<path d="M66.6875 68.9248C71.486 68.925 74.6434 71.1054 76.6006 73.834C78.5352 76.5312 79.292 79.748 79.3906 81.9053L79.3916 81.9219V86.1582C79.3916 87.8701 78.0029 89.2585 76.291 89.2588H73.7412C72.0294 89.2585 70.6416 87.8701 70.6416 86.1582V83.3613C70.6416 82.1619 70.5289 80.6668 69.9961 79.4932C69.7346 78.9173 69.383 78.4459 68.9189 78.1172C68.4606 77.7927 67.8468 77.5753 67 77.5752C66.2024 77.5752 65.6168 77.7946 65.1719 78.125C64.7186 78.4619 64.3699 78.9457 64.1074 79.5293C63.575 80.7133 63.4502 82.1878 63.4502 83.25V108.562C63.4502 110.658 63.8246 112.111 64.4717 113.025C65.0873 113.895 66.0116 114.362 67.375 114.362C68.5217 114.362 69.319 113.782 69.8604 112.918C70.4157 112.031 70.6746 110.873 70.6758 109.882L70.6318 105.303C70.6154 103.579 72.0088 102.173 73.7324 102.173H76.3154C78.0272 102.173 79.415 103.562 79.415 105.273V108.75C79.415 112.96 78.5105 116.46 76.4639 118.917C74.3976 121.397 71.2629 122.7 67.0625 122.7C62.8218 122.7 59.6833 121.134 57.626 118.449C55.5905 115.792 54.6748 112.121 54.6748 108V83.3125C54.6645 80.9425 55.2347 77.3883 57.0088 74.4004C58.8058 71.3741 61.8499 68.9249 66.6875 68.9248Z" fill="#FBBA00"/>
<path d="M49.0996 69.9873C50.8115 69.9876 52.2002 71.376 52.2002 73.0879V75.3496C52.2002 77.0615 50.8115 78.4499 49.0996 78.4502H40.0566C39.67 78.4502 39.3564 78.7638 39.3564 79.1504V90.2627C39.3564 90.6506 39.6717 90.9647 40.0596 90.9629L46.2119 90.9316C47.93 90.9231 49.3281 92.3131 49.3281 94.0312V96.4717C49.3279 98.1772 47.9496 99.5622 46.2441 99.5713L40.0527 99.6025C39.6676 99.6045 39.3566 99.9177 39.3564 100.303V113.229C39.3566 113.615 39.6682 113.927 40.0537 113.929L49.9873 113.959C51.6952 113.965 53.0779 115.351 53.0781 117.059V119.361C53.0781 121.088 51.6661 122.482 49.9395 122.461L35.5869 122.284C32.7951 122.25 30.5498 119.977 30.5498 117.185V74.0879C30.5498 71.8235 32.386 69.9873 34.6504 69.9873H49.0996Z" fill="#FBBA00"/>
<path d="M25.0371 69.9873C26.7492 69.9873 28.1377 71.3758 28.1377 73.0879V75.4434C28.1377 77.1552 26.7509 78.5436 25.0391 78.5439L20.3975 78.5557C20.0117 78.5568 19.6992 78.87 19.6992 79.2559V119.131C19.6992 120.843 18.3116 122.231 16.5996 122.231H13.8994C12.1874 122.231 10.7998 120.843 10.7998 119.131V79.2559C10.7998 78.87 10.4873 78.5568 10.1016 78.5557L5.46094 78.5439C3.74957 78.5431 2.3623 77.1549 2.3623 75.4434V73.0879C2.3623 71.3758 3.75081 69.9873 5.46289 69.9873H25.0371Z" fill="#FBBA00"/>
<path d="M88.4453 69.8438C90.1571 69.8441 91.5449 71.2325 91.5449 72.9443V90.0693C91.5452 90.4557 91.8587 90.7686 92.2451 90.7686H98.4785C98.8647 90.7683 99.1784 90.4555 99.1787 90.0693V72.9658C99.1788 71.2429 100.584 69.8507 102.307 69.8662L104.786 69.8887C106.487 69.9047 107.857 71.2878 107.857 72.9883V119.123C107.857 120.835 106.469 122.222 104.758 122.223H102.278C100.567 122.222 99.1789 120.835 99.1787 119.123V100.168C99.1787 99.7815 98.8649 99.468 98.4785 99.4678H92.2451C91.8585 99.4678 91.5449 99.7814 91.5449 100.168V119.123C91.5447 120.835 90.1569 122.222 88.4453 122.223H85.8379C84.1259 122.223 82.7375 120.835 82.7373 119.123V72.9443C82.7373 71.2323 84.1258 69.8438 85.8379 69.8438H88.4453Z" fill="#FBBA00"/>
<path d="M85.3857 38.9708C84.1017 37.7317 82.4347 37.0984 80.3582 37.0984C78.2815 37.0984 76.6148 37.7592 75.3033 39.0535C74.019 40.3476 73.3633 41.9723 73.3633 43.9274C73.3633 45.9925 74.019 47.6447 75.3033 48.9113C76.6148 50.1503 78.2815 50.7836 80.3309 50.7836C82.3529 50.7836 84.0196 50.1503 85.3312 48.8563C85.9867 48.223 86.5059 47.4795 86.834 46.6532C87.1618 45.8273 87.3256 44.9186 87.3256 43.9274C87.3529 41.8621 86.6974 40.2098 85.3857 38.9708ZM83.2817 46.9286C82.5713 47.6996 81.615 48.0853 80.3582 48.0853C79.2652 48.0853 78.2542 47.6996 77.4892 46.9012C76.7241 46.0752 76.3962 45.0838 76.3962 43.8996C76.3962 42.688 76.7788 41.6694 77.5165 40.8984C78.2542 40.1274 79.2106 39.7418 80.3582 39.7418C81.4511 39.7418 82.4074 40.1274 83.1726 40.8984C83.9375 41.6694 84.2928 42.6605 84.2928 43.8996C84.3201 45.139 83.965 46.1302 83.2817 46.9286Z" fill="white"/>
<path d="M96.1405 43.0275H92.4239V39.9969H96.7143C96.9331 39.9969 97.097 39.8316 97.097 39.6111V37.6827C97.097 37.4622 96.9331 37.2969 96.7143 37.2969H89.9373C89.7186 37.2969 89.5547 37.4622 89.5547 37.6827V50.1628C89.5547 50.3834 89.7186 50.5486 89.9373 50.5486H92.0416C92.26 50.5486 92.4239 50.3834 92.4239 50.1628V45.6997H96.1405C96.359 45.6997 96.5232 45.5344 96.5232 45.3142V43.3855C96.4956 43.2203 96.3317 43.0275 96.1405 43.0275Z" fill="white"/>
<path d="M102.4 39.9976V50.194C102.4 50.4143 102.564 50.5796 102.783 50.5796H104.89C105.109 50.5796 105.273 50.4143 105.273 50.194V39.9976H108.912C109.131 39.9976 109.295 39.8323 109.295 39.6117V37.6828C109.295 37.4622 109.131 37.2969 108.912 37.2969H98.7874C98.5687 37.2969 98.4043 37.4622 98.4043 37.6828V39.6117C98.4043 39.8323 98.5687 39.9976 98.7874 39.9976H102.4Z" fill="white"/>
<path d="M114.314 45.0945C114.97 45.3975 115.462 45.728 115.818 46.0309C116.146 46.3339 116.337 46.6369 116.337 46.9676C116.337 47.3256 116.2 47.6011 115.954 47.8213C115.708 48.014 115.38 48.1243 114.97 48.1243C114.424 48.1243 113.904 47.9865 113.357 47.7388C112.975 47.5458 112.647 47.3256 112.373 47.0501C112.209 46.8849 111.963 46.9124 111.827 47.0776L110.651 48.51C110.542 48.6477 110.542 48.813 110.624 48.9507C110.952 49.4739 111.471 49.8871 112.182 50.2176C113.029 50.603 113.932 50.796 114.888 50.796C116.2 50.796 117.239 50.4378 118.087 49.6941C118.797 49.1434 119.262 48.3448 119.344 47.4633C119.426 46.5544 119.289 45.8107 118.962 45.1773C118.688 44.6538 118.36 44.2684 117.977 43.9929C117.567 43.6899 117.13 43.4419 116.665 43.1668C116.173 42.9188 115.736 42.6986 115.326 42.5333C114.916 42.3403 114.56 42.1201 114.26 41.8446C113.986 41.5691 113.822 41.2387 113.822 40.8532C113.822 40.5225 113.959 40.2473 114.205 40.0543C114.478 39.8616 114.834 39.7788 115.244 39.7788C115.681 39.7788 116.036 39.8341 116.337 39.9718C116.529 40.0543 116.72 40.192 116.939 40.3572C117.103 40.495 117.349 40.4675 117.485 40.2748L118.579 38.7324C118.688 38.5672 118.661 38.3467 118.524 38.2364C117.649 37.4653 116.474 37.0798 114.97 37.0798C113.686 37.0798 112.674 37.4378 111.909 38.1815C111.143 38.9252 110.76 39.8066 110.76 40.8532C110.76 41.3214 110.815 41.7618 110.952 42.1751C111.116 42.5883 111.307 42.9462 111.499 43.1942C111.717 43.4697 111.991 43.7449 112.346 43.9929C112.702 44.2409 113.002 44.4611 113.276 44.5989C113.576 44.7916 113.932 44.9293 114.314 45.0945Z" fill="white"/>
<path d="M127.149 50.2877L129.883 41.6921L132.645 50.2877C132.699 50.453 132.836 50.5358 133 50.5358H135.215C135.379 50.5358 135.516 50.4255 135.571 50.2602L139.07 37.7799C139.125 37.5321 138.961 37.3115 138.715 37.3115H136.746C136.582 37.3115 136.418 37.4218 136.391 37.5871L134.121 46.0449L131.551 37.5871C131.497 37.4218 131.36 37.3115 131.196 37.3115H128.817C128.653 37.3115 128.516 37.4218 128.461 37.5871L125.973 46.0724L123.731 37.6146C123.676 37.4493 123.54 37.339 123.376 37.339H120.915C120.669 37.339 120.477 37.5871 120.559 37.8074L124.223 50.2877C124.278 50.453 124.415 50.5633 124.579 50.5633H126.793C126.957 50.5633 127.121 50.453 127.149 50.2877Z" fill="white"/>
<path d="M141.606 50.5633H143.712C143.931 50.5633 144.095 50.398 144.095 50.1774V37.6974C144.095 37.4768 143.931 37.3115 143.712 37.3115H141.606C141.387 37.3115 141.223 37.4768 141.223 37.6974V50.1774C141.223 50.3705 141.387 50.5633 141.606 50.5633Z" fill="white"/>
<path d="M150.334 45.0835C150.99 45.3864 151.481 45.7168 151.837 46.0197C152.165 46.3226 152.356 46.6255 152.356 46.9559C152.356 47.3141 152.219 47.5895 151.973 47.8096C151.727 48.0023 151.4 48.1125 150.99 48.1125C150.443 48.1125 149.924 47.9748 149.378 47.7269C148.995 47.5342 148.667 47.3141 148.394 47.0386C148.23 46.8734 147.984 46.9009 147.847 47.0661L146.673 48.4982C146.563 48.6356 146.563 48.8011 146.645 48.9385C146.973 49.4618 147.492 49.875 148.203 50.2054C149.05 50.5907 149.951 50.7834 150.908 50.7834C152.219 50.7834 153.257 50.4255 154.105 49.682L154.241 49.5721C154.952 48.8835 155.389 47.9473 155.389 46.9837C155.389 46.2951 155.252 45.6893 154.979 45.1937C154.706 44.6704 154.378 44.285 153.995 44.0096C153.586 43.7067 153.148 43.4591 152.684 43.1837C152.192 42.9357 151.755 42.7156 151.345 42.5504C150.935 42.3574 150.58 42.1372 150.279 41.8618C150.006 41.5864 149.842 41.256 149.842 40.8707C149.842 40.54 149.979 40.2649 150.225 40.0719C150.498 39.8792 150.853 39.7968 151.263 39.7968C151.7 39.7968 152.055 39.8517 152.356 39.9895C152.547 40.0719 152.739 40.2096 152.957 40.3748C153.121 40.5125 153.367 40.485 153.503 40.2924L154.596 38.7504C154.706 38.5852 154.678 38.3647 154.542 38.2545C153.667 37.4835 152.493 37.0981 150.99 37.0981C149.705 37.0981 148.695 37.456 147.929 38.1995C147.164 38.943 146.782 39.8243 146.782 40.8707C146.782 41.3388 146.837 41.7794 146.973 42.1922C147.137 42.6053 147.329 42.9632 147.52 43.2111C147.738 43.4866 148.012 43.762 148.367 44.0096C148.722 44.2576 149.022 44.4777 149.296 44.6154C149.596 44.7806 149.951 44.9183 150.334 45.0835Z" fill="white"/>
<path d="M160.434 45.0838C161.089 45.3867 161.581 45.717 161.936 46.0199C162.264 46.3228 162.456 46.6257 162.456 46.9561C162.456 47.3143 162.319 47.5897 162.073 47.8099C161.827 48.0025 161.499 48.1128 161.089 48.1128C160.543 48.1128 160.024 47.9751 159.477 47.7271C159.095 47.5345 158.767 47.3143 158.494 47.0389C158.33 46.8737 158.084 46.9012 157.947 47.0664L156.772 48.4984C156.663 48.6358 156.663 48.8013 156.745 48.9387C157.073 49.4621 157.592 49.8752 158.302 50.2056C159.15 50.591 160.051 50.7836 161.007 50.7836C162.319 50.7836 163.357 50.4258 164.204 49.6822L164.341 49.5723C165.051 48.8838 165.488 47.9476 165.488 46.9839C165.488 46.2954 165.352 45.6896 165.079 45.194C164.805 44.6706 164.478 44.2853 164.095 44.0099C163.685 43.707 163.248 43.4593 162.783 43.1839C162.292 42.936 161.854 42.7158 161.444 42.5506C161.035 42.3576 160.68 42.1375 160.379 41.8621C160.106 41.5866 159.942 41.2563 159.942 40.8709C159.942 40.5402 160.078 40.2651 160.324 40.0721C160.598 39.8795 160.953 39.797 161.363 39.797C161.8 39.797 162.155 39.852 162.456 39.9897C162.647 40.0721 162.838 40.2098 163.057 40.375C163.221 40.5128 163.466 40.4853 163.603 40.2926L164.696 38.7506C164.805 38.5854 164.778 38.365 164.641 38.2547C163.767 37.4837 162.592 37.0984 161.089 37.0984C159.805 37.0984 158.794 37.4563 158.029 38.1998C157.264 38.9433 156.882 39.8245 156.882 40.8709C156.882 41.339 156.936 41.7796 157.073 42.1924C157.237 42.6056 157.428 42.9634 157.619 43.2114C157.838 43.4868 158.111 43.7622 158.467 44.0099C158.822 44.2578 159.122 44.478 159.395 44.6157C159.723 44.7809 160.051 44.9186 160.434 45.0838Z" fill="white"/>
<path d="M66.6074 45.0768C67.2632 45.3798 67.755 45.7103 68.1102 46.0134C68.4381 46.3164 68.6293 46.6195 68.6293 46.95C68.6293 47.3084 68.4927 47.5839 68.2468 47.8042C68.0009 47.997 67.673 48.1072 67.2632 48.1072C66.7167 48.1072 66.1976 47.9695 65.6511 47.7214C65.2686 47.5286 64.9407 47.3084 64.6675 47.0328C64.5035 46.8676 64.2576 46.895 64.121 47.0603L62.9461 48.4928C62.8368 48.6305 62.8368 48.7958 62.9188 48.9336C63.2467 49.4572 63.7658 49.8705 64.4762 50.2011C65.3232 50.5866 66.2249 50.7794 67.1812 50.7794C68.4927 50.7794 69.531 50.4213 70.378 49.6775L70.4873 49.5675C71.1977 48.8786 71.6349 47.942 71.6622 46.95C71.6622 46.2615 71.5256 45.6554 71.2523 45.1317C70.9791 44.6084 70.6512 44.2229 70.2687 43.9474C69.8589 43.6443 69.4217 43.3962 68.9572 43.1207C68.4654 42.8729 68.0282 42.6524 67.6184 42.4871C67.2085 42.2943 66.8533 42.0738 66.5528 41.7985C66.2795 41.523 66.1156 41.1924 66.1156 40.8066C66.1156 40.476 66.2522 40.2005 66.4981 40.0077C66.7714 39.815 67.1265 39.7322 67.5364 39.7322C67.9736 39.7322 68.3288 39.7875 68.6293 39.9249C68.8206 40.0077 69.0118 40.1455 69.2305 40.3108C69.3944 40.4486 69.6403 40.4211 69.7769 40.228L70.8698 38.6852C70.9791 38.52 70.9518 38.2997 70.8152 38.1894C69.9409 37.4181 68.7659 37.0322 67.2632 37.0322C65.979 37.0322 64.968 37.3906 64.203 38.1344C63.4379 38.8783 63.0554 39.7597 63.0554 40.8066C63.0554 41.2749 63.1101 41.7157 63.2467 42.1291C63.4106 42.5424 63.6019 42.9004 63.7931 43.1485C64.0117 43.4237 64.2849 43.6993 64.6401 43.9474C64.9953 44.1951 65.2959 44.4157 65.5691 44.5535C65.897 44.7737 66.2249 44.9115 66.6074 45.0768Z" fill="white"/>
<path d="M112.665 12.4663L105.366 19.8195L100.922 15.3412L105.366 10.863L106.683 12.1899C107.013 12.5216 107.451 12.7151 107.918 12.7151C108.384 12.7151 108.823 12.5216 109.153 12.1899L111.046 10.2825C111.732 9.5914 111.732 8.48567 111.046 7.82225L106.629 3.37165C106.299 3.03995 105.86 2.84644 105.394 2.84644C104.927 2.84644 104.488 3.03995 104.159 3.37165L93.4861 14.1249C92.8002 14.816 92.8002 15.9218 93.4861 16.5852L104.159 27.3385C104.488 27.6701 104.927 27.8638 105.394 27.8638C105.86 27.8638 106.299 27.6701 106.629 27.3385L115.765 18.1332L117.027 16.8616L112.665 12.4663Z" fill="#FBBA00"/>
<path d="M134.846 16.5964L124.17 27.3513C123.84 27.6831 123.401 27.8764 122.934 27.8764C122.468 27.8764 122.029 27.6831 121.699 27.3513L117.253 22.8722C116.567 22.1813 116.567 21.0752 117.253 20.4117L119.147 18.5041C119.476 18.1724 119.915 18.0065 120.382 18.0065C120.849 18.0065 121.288 18.2 121.617 18.5041L122.852 19.7482L122.934 19.8313L127.381 15.3523L122.934 10.8735L116.32 17.5365C116.293 17.5641 116.265 17.5918 116.238 17.6194C115.661 18.1724 114.92 18.4488 114.152 18.4488C113.329 18.4488 112.56 18.1171 111.984 17.5365C111.407 16.9559 111.078 16.1817 111.078 15.3523C111.078 14.5506 111.352 13.8317 111.901 13.2511C111.929 13.2235 111.956 13.1958 111.984 13.1682L112.011 13.1405L112.039 13.1129L121.727 3.35341C122.056 3.02167 122.495 2.82812 122.962 2.82812C123.428 2.82812 123.868 3.02167 124.197 3.35341L134.873 14.1082C135.532 14.827 135.532 15.9329 134.846 16.5964Z" fill="#E30613"/>
</svg>
