<?xml version="1.0" encoding="utf-8"?>
<!-- Generator: Adobe Illustrator 27.0.0, SVG Export Plug-In . SVG Version: 6.00 Build 0)  -->
<svg version="1.1" id="Layer_1" xmlns="http://www.w3.org/2000/svg" xmlns:xlink="http://www.w3.org/1999/xlink" x="0px" y="0px"
	 viewBox="0 0 411 112.5" style="enable-background:new 0 0 411 112.5;" xml:space="preserve">
<style type="text/css">
	.st0{fill:#FF002B;}
	.st1{fill:#FFFFFF;}
</style>
<g>
	<g id="THS-horizontal_00000101788967199292921240000016469349001234633650_">
		<g>
			<g>
				<path class="st0" d="M152.6,104.1H21.9V89.6h-8v22.5h146.8V89.6h-8V104.1z M13.8,57.3h8V42.8h130.7v14.5h8V34.8H13.8V57.3z
					 M166.4,57.3h8v32.4h-8V57.3z M0,57.3h8v32.4H0V57.3z M58.4,67.7l-7.6,2l-0.6-8.3h-5l-0.6,8.3l-7.6-2l-1.5,4.7l7.2,3.2l-4.6,7.4
					l4.2,2.9l5.4-6.6l5.4,6.6l4.2-2.9l-4.6-7.4l7.2-3.2L58.4,67.7z M97.9,67.7l-7.6,2l-0.6-8.3h-5l-0.6,8.3l-7.6-2l-1.5,4.7l7.2,3.2
					l-4.6,7.4l4.2,2.9l5.4-6.6l5.4,6.6l4.2-2.9l-4.6-7.4l7.2-3.2L97.9,67.7z M137.4,67.7l-7.6,2l-0.6-8.3h-5l-0.6,8.3l-7.6-2
					l-1.5,4.7l7.2,3.2l-4.6,7.4l4.2,2.9l5.4-6.6l5.4,6.6l4.2-2.9l-4.6-7.4l7.2-3.2L137.4,67.7z"/>
				<path class="st1" d="M218.2,39.6H210v-4.8h22.3v4.8H224v22.2h-5.8V39.6z M258.9,34.8v27h-5.8V50.5h-11.7v11.3h-5.8v-27h5.8v10.9
					h11.7V34.8H258.9z M270,39.6v6.2h10.5v4.6H270V57H282v4.8h-17.9v-27H282v4.8H270z M318,34.8v27h-5.8V50.5h-11.7v11.3h-5.8v-27
					h5.8v10.9h11.7V34.8H318z M347.1,66.1c-2.5,1.1-5.1,1.6-7.8,1.6c-11,0-16.9-7.7-16.9-16.5c0-10.5,8.6-18.7,19-18.7
					c8.8,0,16.8,5.9,16.8,15.6c0,6.3-3.7,11-8,11c-3.5,0-5.3-2-6.1-4.3c-1.1,2.9-3.4,4.3-6,4.3c-4.4,0-6.9-3.9-6.9-8.4
					c0-5.7,3.9-9.1,8.1-9.1c2,0,3.9,1.1,4.8,2.9c0.1-1,0.2-1.9,0.2-2.8h4.6l0,0.8c-0.3,4.8-0.5,6.9-0.5,8c0,3.3,0.9,4.3,2,4.3
					c1.8,0,3.1-2.3,3.1-6.1c0-7.9-5.5-11.3-12.2-11.3c-8.4,0-13.7,6.9-13.7,14.1c0,7.4,5.4,11.6,11.8,11.6c2.8,0,5.5-0.7,8-1.8
					L347.1,66.1z M343.6,51.1c0-0.5,0-1.1,0-1.6c-0.3-2.6-1.9-3.8-3.5-3.8c-2.1,0-4,1.8-4,5.3c0,2.5,1.7,4,3.5,4
					C341.3,55,343.1,53.7,343.6,51.1 M384.8,44.6l-5.4,0.8c0-2.5-1.5-5.9-5.6-5.9c-3.9,0-7,3.3-7,8.8c0,6.2,3.7,8.8,7.7,8.8
					c3.5,0,5.8-2.3,6.9-3.8l3.4,3.6c-2.4,3.4-6.4,5.4-10.5,5.3c-8,0-13.4-5.2-13.4-13.8c0-8.4,5.3-13.8,12.7-13.8
					C381.9,34.5,384.8,40.2,384.8,44.6 M397.6,51.2h-2.9v10.6h-5.8v-27h5.8v11.8h2.5l7.6-11.8h6l-9.3,13.8l9.4,13.2h-6.1L397.6,51.2
					z M224.5,84.2c-3.1,0-4.9,1.4-4.9,3.7c0,6.1,17.4,2.6,17.4,15.2c0,5.2-4.2,9.4-12.8,9.4c-7,0-11.6-3-13.5-4.7l4.2-5.2
					c1.6,1.4,5.1,4,9.5,4c3.6,0,5.4-1.3,5.4-3.4c0-6.7-17.5-3.1-17.5-15c0-5.6,4.8-10.1,12-10.1c8.9,0,11.7,5.2,12.4,8.8l-6.5,1.6
					C230.2,86.8,228.4,84.2,224.5,84.2 M271.8,78.6v20.3c0,8.3-5.6,13.6-14,13.6c-8.4,0-14.1-5.3-14.1-13.6V78.6h7.2v20.3
					c0,4.7,2.8,7.4,6.9,7.4s6.8-2.7,6.8-7.3V78.6H271.8z M316.6,112.1h-7.1l0.1-17.7c0-1.5,0.2-3.7,0.2-4l-0.2-0.1
					c-0.3,1.1-0.6,2.1-1.1,3.1l-8.1,18.8h-3.9l-8.3-19c-0.4-1-0.7-1.9-1-2.9l-0.3,0.1c0.2,1.3,0.3,2.7,0.3,4l0,17.7h-7.1V78.6h7.7
					l8.2,17.8c1,2.1,2.1,5.1,2.4,5.9h0.2c0.2-0.8,1.4-3.8,2.4-5.9l8.1-17.7h7.5L316.6,112.1z M361.7,112.1h-7.1l0.1-17.7
					c0-1.5,0.2-3.7,0.2-4l-0.2-0.1c-0.3,1.1-0.6,2.1-1.1,3.1l-8.1,18.8h-3.9l-8.3-19c-0.4-1-0.7-1.9-1-2.9l-0.3,0.1
					c0.2,1.3,0.3,2.7,0.3,4l0.1,17.7h-7.1V78.6h7.7l8.2,17.8c1,2.1,2.1,5.1,2.4,5.9h0.2c0.2-0.8,1.4-3.8,2.4-5.9l8.1-17.7h7.5
					L361.7,112.1z M370.5,78.6h7.1v33.5h-7.1V78.6z M393.6,84.5h-10.2v-5.9H411v5.9h-10.2v27.6h-7.2V84.5z"/>
			</g>
		</g>
	</g>
	<path class="st0" d="M130.6,38.7h-7.8V21.3c0-7.4-6-13.5-13.5-13.5H65.1c-7.4,0-13.5,6-13.5,13.5h-7.8C43.8,9.5,53.4,0,65.1,0h44.2
		c11.7,0,21.3,9.5,21.3,21.3V38.7z"/>
</g>
</svg>
