<?xml version="1.0" encoding="UTF-8"?><svg id="Layer_1" xmlns="http://www.w3.org/2000/svg" viewBox="0 0 569.18 75.78"><defs><style>.cls-1{fill:#fff;}.cls-2{fill:#a173ff;}</style></defs><g><polygon class="cls-1" points="265.62 .48 260.16 20.3 254.86 .48 254.39 .48 250.06 .48 249.59 .48 244.34 20.53 238.87 .48 233.49 .48 241.5 28.71 242.2 28.71 246.57 28.71 247.04 28.71 252.21 8.84 257.33 28.71 257.84 28.71 262.41 28.71 262.91 28.71 271 .48 265.62 .48"/><path class="cls-1" d="M296,28.71L285.32,.48h-5.65l-10.68,28.22h5.61l2.28-6.21h11.23l2.28,6.21h5.61Zm-17.33-11.09l3.82-10.4,3.82,10.4h-7.64Z"/><path class="cls-1" d="M314.23,17.56c1.5-.77,2.68-1.84,3.54-3.23,.86-1.38,1.3-2.96,1.3-4.74s-.41-3.39-1.24-4.76c-.83-1.37-1.97-2.45-3.44-3.25-1.47-.79-3.16-1.18-5.07-1.15l-5.38,.04h-4.68V28.71h5.3v-10h4.06l5.53,10h6l-6.28-10.99c.12-.05,.25-.1,.36-.16Zm-9.68-12.04h4.53c1.32,0,2.39,.38,3.23,1.13,.84,.75,1.26,1.73,1.26,2.94,0,.78-.19,1.48-.56,2.1-.37,.62-.88,1.1-1.51,1.45-.63,.35-1.35,.52-2.15,.52h-4.8V5.52Z"/><path class="cls-1" d="M326.31,27.19c.93,.63,1.99,1.12,3.18,1.47s2.46,.52,3.83,.52c2.09,0,3.87-.35,5.34-1.05s2.59-1.67,3.37-2.92,1.16-2.71,1.16-4.37c0-1.88-.65-3.59-1.94-5.12-1.29-1.53-3.1-2.59-5.42-3.19l-3.56-.93c-1.01-.27-1.8-.66-2.38-1.17-.58-.51-.87-1.21-.87-2.1,0-1.13,.37-2,1.1-2.62,.74-.62,1.75-.93,3.04-.93s2.31,.32,3.14,.97c.82,.65,1.39,1.42,1.7,2.34l5.15-1.65c-.47-1.32-1.14-2.46-2.01-3.43-.88-.97-1.97-1.71-3.27-2.24s-2.82-.79-4.55-.79c-3.1,0-5.49,.75-7.18,2.24s-2.53,3.57-2.53,6.23c0,1.4,.28,2.62,.85,3.67s1.35,1.93,2.36,2.64c1.01,.71,2.17,1.24,3.48,1.59l3.52,.97c1.19,.32,2.12,.79,2.81,1.39,.68,.6,1.03,1.35,1.03,2.24,0,1.02-.43,1.85-1.3,2.5-.87,.65-1.98,.95-3.35,.93-1.29-.03-2.36-.37-3.21-1.03-.85-.66-1.45-1.44-1.78-2.36l-5.19,1.61c.18,.86,.57,1.68,1.18,2.46,.6,.78,1.37,1.49,2.3,2.12Z"/><polygon class="cls-1" points="367.64 23.55 353.09 23.55 367.76 5.64 367.76 .48 346.35 .48 346.35 5.64 360.9 5.64 346.24 23.55 346.24 28.71 367.64 28.71 367.64 23.55"/><path class="cls-1" d="M377.44,22.5h11.23l2.28,6.21h5.61L385.87,.48h-5.65l-10.68,28.22h5.61l2.28-6.21Zm5.61-15.27l3.82,10.39h-7.64l3.82-10.39Z"/><polygon class="cls-1" points="408.09 28.71 413.27 8.85 418.39 28.71 418.89 28.71 423.46 28.71 423.96 28.71 432.05 .48 426.67 .48 421.21 20.3 415.91 .48 415.45 .48 411.11 .48 410.65 .48 405.39 20.53 399.92 .48 394.54 .48 402.56 28.71 403.25 28.71 407.63 28.71 408.09 28.71"/><path class="cls-1" d="M447.43,23.47c-.86,.65-1.98,.95-3.35,.93-1.29-.03-2.36-.37-3.21-1.03-.85-.66-1.45-1.44-1.78-2.36l-5.19,1.61c.18,.86,.58,1.68,1.18,2.46,.61,.78,1.37,1.49,2.3,2.12,.93,.63,1.99,1.12,3.17,1.47s2.46,.52,3.83,.52c2.09,0,3.87-.35,5.34-1.05,1.47-.7,2.59-1.67,3.37-2.92s1.16-2.71,1.16-4.37c0-1.88-.65-3.59-1.94-5.12s-3.1-2.59-5.42-3.19l-3.56-.93c-1-.27-1.8-.66-2.38-1.17-.58-.51-.87-1.21-.87-2.1,0-1.13,.37-2,1.1-2.62,.74-.62,1.75-.93,3.04-.93s2.31,.32,3.14,.97c.82,.65,1.39,1.42,1.7,2.34l5.15-1.65c-.46-1.32-1.14-2.46-2.01-3.43-.88-.97-1.97-1.71-3.27-2.24s-2.82-.79-4.55-.79c-3.1,0-5.49,.75-7.18,2.24s-2.54,3.57-2.54,6.23c0,1.4,.28,2.62,.85,3.67,.57,1.05,1.35,1.93,2.36,2.64,1.01,.71,2.17,1.24,3.48,1.59l3.52,.97c1.19,.32,2.12,.79,2.8,1.39,.68,.6,1.03,1.35,1.03,2.24,0,1.02-.43,1.85-1.3,2.5Z"/><polygon class="cls-1" points="464.02 19.29 466.02 17.06 474.78 28.71 481.32 28.71 469.47 13.21 480.9 .48 474.04 .48 464.02 11.66 464.02 .48 458.79 .48 458.79 28.71 464.02 28.71 464.02 19.29"/><rect class="cls-1" x="484.57" y=".48" width="5.3" height="28.22"/><polygon class="cls-1" points="501.06 28.71 513.06 28.71 513.06 23.67 501.06 23.67 501.06 16.85 511.28 16.85 511.28 11.93 501.06 11.93 501.06 5.52 512.9 5.52 512.9 .48 501.06 .48 499.78 .48 495.76 .48 495.76 28.71 499.78 28.71 501.06 28.71"/><path class="cls-1" d="M252.13,48.89c-2.13-1.21-4.57-1.81-7.34-1.81h-8.67v28.22h8.67c2.76,0,5.2-.6,7.32-1.81,2.12-1.21,3.78-2.88,4.99-5,1.21-2.12,1.82-4.56,1.82-7.3s-.6-5.21-1.8-7.32c-1.2-2.11-2.86-3.77-4.99-4.98Zm.71,15.83c-.44,1.09-1.05,2.04-1.84,2.84-.79,.81-1.71,1.44-2.77,1.9-1.06,.46-2.21,.69-3.45,.69h-3.37v-17.9h3.37c1.24,0,2.39,.23,3.45,.69,1.06,.46,1.98,1.09,2.77,1.89,.79,.81,1.4,1.75,1.84,2.84,.44,1.09,.66,2.26,.66,3.53s-.22,2.44-.66,3.53Z"/><polygon class="cls-1" points="281.99 66.09 268.75 47.07 263.22 47.07 263.22 75.29 268.52 75.33 268.52 55.94 281.99 75.29 287.25 75.29 287.25 47.07 281.99 47.07 281.99 66.09"/><rect class="cls-1" x="293.14" y="47.07" width="5.3" height="28.22"/><rect class="cls-1" x="313.53" y="47.07" width="5.3" height="28.22"/><polygon class="cls-1" points="343.49 66.09 330.25 47.07 324.72 47.07 324.72 75.29 330.02 75.33 330.02 55.94 343.49 75.29 348.75 75.29 348.75 47.07 343.49 47.07 343.49 66.09"/><polygon class="cls-1" points="358.9 47.07 354.64 47.07 354.64 75.29 359.94 75.29 359.94 63.92 370 63.92 370 58.88 359.94 58.88 359.94 52.11 372.02 52.11 372.02 47.07 359.94 47.07 358.9 47.07"/><path class="cls-1" d="M395.57,48.5c-2.08-1.25-4.48-1.87-7.22-1.87s-5.1,.62-7.18,1.85c-2.08,1.24-3.71,2.95-4.9,5.14-1.19,2.19-1.78,4.72-1.78,7.6s.59,5.33,1.78,7.52c1.19,2.19,2.83,3.91,4.94,5.16,2.1,1.25,4.52,1.87,7.26,1.87s5.06-.62,7.14-1.87c2.08-1.25,3.7-2.97,4.88-5.16,1.17-2.19,1.76-4.7,1.76-7.52s-.59-5.37-1.78-7.56c-1.19-2.19-2.82-3.91-4.9-5.16Zm.19,17.64c-.71,1.42-1.69,2.55-2.94,3.37-1.25,.82-2.7,1.23-4.35,1.23s-3.16-.41-4.45-1.23c-1.29-.82-2.3-1.94-3.02-3.37-.72-1.42-1.08-3.06-1.08-4.92s.36-3.53,1.08-4.96c.72-1.42,1.72-2.55,3-3.37,1.28-.82,2.73-1.23,4.35-1.23s3.15,.41,4.41,1.23c1.26,.82,2.26,1.94,2.98,3.37,.72,1.43,1.08,3.08,1.08,4.96s-.36,3.49-1.07,4.92Z"/><path class="cls-1" d="M421.52,64.15c1.5-.77,2.68-1.84,3.54-3.23,.86-1.38,1.29-2.96,1.29-4.74s-.41-3.39-1.24-4.76-1.97-2.45-3.44-3.25c-1.47-.79-3.16-1.18-5.07-1.15l-5.38,.04h-4.68v28.22h5.3v-10h4.06l5.53,10h6l-6.28-10.99c.12-.05,.25-.1,.36-.16Zm-9.68-12.03h4.53c1.32,0,2.39,.38,3.23,1.13,.84,.75,1.26,1.73,1.26,2.94,0,.78-.19,1.48-.56,2.1-.37,.62-.88,1.1-1.51,1.45-.63,.35-1.35,.52-2.15,.52h-4.8v-8.14Z"/><polygon class="cls-1" points="453.53 47.12 453.06 47.07 445.17 59.27 437.27 47.07 436.81 47.12 436.81 47.07 431.51 47.07 431.51 75.29 436.81 75.29 436.81 55.85 445.17 68.52 453.53 55.72 453.53 75.29 458.79 75.29 458.79 47.07 453.53 47.07 453.53 47.12"/><path class="cls-1" d="M478.03,47.07h-5.3l-10.68,28.22h5.61l2.28-6.21h11.23l2.28,6.21h5.61l-10.68-28.22h-.35Zm-6.3,17.14l3.82-10.39,3.82,10.39h-7.64Z"/><polygon class="cls-1" points="488.05 52.11 496.18 52.11 496.18 75.29 501.48 75.29 501.48 52.11 509.57 52.11 509.57 47.07 488.05 47.07 488.05 52.11"/><polygon class="cls-1" points="528.85 47.07 522.64 57.94 516.43 47.07 510.39 47.07 519.99 63.38 519.99 75.29 525.29 75.29 525.29 63.38 534.89 47.07 528.85 47.07"/><polygon class="cls-1" points="560.2 47.07 553.35 47.07 543.32 58.25 543.32 47.07 538.1 47.07 538.1 75.29 543.32 75.29 543.32 65.87 545.32 63.65 554.09 75.29 560.63 75.29 548.78 59.8 560.2 47.07"/><rect class="cls-1" x="563.88" y="47.07" width="5.3" height="28.22"/></g><g><rect class="cls-2" x="182.74" y=".08" width="17.48" height="75.15" rx="2.74" ry="2.74"/><path class="cls-2" d="M96.54,0h-12.25c-1.52,0-2.75,1.23-2.75,2.75V35.46c0,1.62-2.15,2.18-2.94,.77L58.95,1.4C58.46,.54,57.55,0,56.56,0h-13.15c-1.52,0-2.75,1.23-2.75,2.75v30.77c0,1.6-2.11,2.18-2.93,.8L18.35,1.36C17.86,.52,16.96,0,15.99,0H2.75C.65,0-.68,2.27,.36,4.1L39.87,73.91c.49,.86,1.4,1.39,2.39,1.39h13.16c1.52,0,2.75-1.23,2.75-2.75V38.43c0-1.63,2.18-2.18,2.95-.75l19.65,36.19c.48,.88,1.41,1.44,2.41,1.44h13.36c1.52,0,2.75-1.23,2.75-2.75V2.75C99.28,1.23,98.06,0,96.54,0Z"/><path class="cls-2" d="M155.52,4.85C149.43,1.62,142.42,0,134.51,0h-22.1c-1.14,0-2.06,.92-2.06,2.06V13.67c0,1.02,.83,1.85,1.85,1.85h21.96c9.96,0,19.2,5.17,22.19,14.67,5.01,15.94-6.76,29.32-21.95,29.32h-8.64v13.2s0,0,0,0v.53c0,1.14,.92,2.06,2.06,2.06h6.69c7.92,0,14.92-1.61,21.01-4.84,6.09-3.23,10.86-7.67,14.3-13.34,3.44-5.67,5.16-12.16,5.16-19.47s-1.72-13.89-5.16-19.52c-3.44-5.63-8.21-10.06-14.3-13.28Z"/><path class="cls-2" d="M112.56,44.1c-1.22,0-2.21,.99-2.21,2.21v11c0,1.22,.99,2.21,2.21,2.21h13.2v-15.41h-13.2Z"/><path class="cls-2" d="M141.17,41.89v-11c0-1.22-.99-2.21-2.21-2.21h-11c-1.22,0-2.21,.99-2.21,2.21v13.21h13.21c1.22,0,2.21-.99,2.21-2.21Z"/></g></svg>