<?xml version="1.0" encoding="UTF-8" standalone="no"?><!DOCTYPE svg PUBLIC "-//W3C//DTD SVG 1.1//EN" "http://www.w3.org/Graphics/SVG/1.1/DTD/svg11.dtd"><svg width="100%" height="100%" viewBox="0 0 2263 728" version="1.1" xmlns="http://www.w3.org/2000/svg" xmlns:xlink="http://www.w3.org/1999/xlink" xml:space="preserve" xmlns:serif="http://www.serif.com/" style="fill-rule:evenodd;clip-rule:evenodd;stroke-linejoin:round;stroke-miterlimit:2;"><path d="M209.655,273.501l59.958,0l0,42.75c0,12.75 -1.292,23.625 -1.292,23.625l1.292,0c15.292,-37.625 60.583,-74 111,-74c54.208,0 86.125,24.875 96.958,73.375l1.292,0c17.875,-38.917 62.5,-73.375 114.833,-73.375c72.75,0 106.542,41.458 106.542,123.75l0,206.708l-61.875,0l0,-193.292c0,-45.292 -8.917,-81 -57.417,-81c-45.292,0 -79.083,38.292 -90.583,82.292c-3.208,13.375 -4.458,28.083 -4.458,44.667l0,147.375l-61.875,0l0,-193.292c0,-42.083 -6.375,-81 -56.125,-81c-49.75,0 -80.375,38.917 -92.5,84.833c-3.208,12.75 -3.833,27.417 -3.833,42.125l0,147.375l-61.875,0l0,-322.792l-0.042,-0.125Z" style="fill:#fff;fill-rule:nonzero;"/><path d="M931.822,265.834c91.208,0 139.708,67.625 139.708,151.208c0,8.292 -1.917,26.792 -1.917,26.792l-235.417,0c3.208,70.833 53.583,106.542 111,106.542c57.417,0 95.667,-37.625 95.667,-37.625l25.5,45.292c0,0 -47.833,45.917 -125.042,45.917c-101.417,0 -170.958,-73.375 -170.958,-169.042c0,-102.708 69.542,-169.042 161.417,-169.042l0.042,-0.042Zm76.542,131.417c-1.917,-55.5 -36.375,-82.292 -77.833,-82.292c-47.208,0 -85.5,29.333 -94.417,82.292l172.25,0Z" style="fill:#fff;fill-rule:nonzero;"/><path d="M1285.905,265.834c91.208,0 139.708,67.625 139.708,151.208c0,8.292 -1.917,26.792 -1.917,26.792l-235.417,0c3.208,70.833 53.583,106.542 111,106.542c57.417,0 95.708,-37.625 95.708,-37.625l25.5,45.292c0,0 -47.833,45.917 -125.042,45.917c-101.417,0 -170.958,-73.375 -170.958,-169.042c0,-102.708 69.542,-169.042 161.417,-169.042l0,-0.042Zm76.542,131.417c-1.917,-55.5 -36.375,-82.292 -77.833,-82.292c-47.208,0 -85.5,29.333 -94.417,82.292l172.25,0Z" style="fill:#fff;fill-rule:nonzero;"/><path d="M1514.28,327.709l-42.125,0l0,-49.75l44,0l0,-93.125l59.958,0l0,93.125l77.833,0l0,49.75l-77.833,0l0,143.542c0,64.417 45.292,72.708 68.917,72.708c8.917,0 14.667,-1.292 14.667,-1.292l0,54.875c0,0 -8.917,1.292 -21.708,1.292c-41.458,0 -123.75,-12.75 -123.75,-120.583l0,-150.542l0.042,0Z" style="fill:#fff;fill-rule:nonzero;"/><rect x="1729.28" y="530.584" width="65.083" height="65.708" style="fill:#bcd35d;fill-rule:nonzero;"/><path d="M1952.572,273.459l-0,333.667c0,107.833 -82.917,120.583 -123.125,120.583c-13.375,0 -21.708,-1.292 -21.708,-1.292l0,-52.958c0,0 5.75,0.625 14.042,0.625c23.625,0 69.542,-7.667 69.542,-70.792l0,-329.833l61.25,0Zm-61.875,-127.542l62.5,0l0,63.167l-62.5,0l0,-63.167Z" style="fill:#219eab;fill-rule:nonzero;"/><path d="M2053.363,512.709c0,0 36.375,37.625 92.5,37.625c26.792,0 53.583,-14.042 53.583,-40.208c0,-59.333 -165.875,-47.208 -165.875,-152.458c0,-58.708 52.292,-91.875 116.75,-91.875c70.833,0 104,35.708 104,35.708l-24.875,46.583c0,0 -28.708,-28.708 -79.75,-28.708c-26.792,0 -52.958,11.5 -52.958,39.542c0,58.042 165.875,45.292 165.875,151.208c0,53.583 -45.917,93.792 -116.75,93.792c-79.083,0 -122.5,-47.208 -122.5,-47.208l30,-44Z" style="fill:#219eab;fill-rule:nonzero;"/><clipPath id="_clip1"><polygon points="263.018,0 0,156.291 156.291,419.31 419.31,263.018 263.018,0 "/></clipPath><g clip-path="url(#_clip1)"><g><path d="M122.737,179.073l-19.531,-46.087l7.375,-3.965c13.569,-7.229 29.018,-13.281 44.664,-17.365c51.719,-13.563 100.098,-3.386 137.335,28.983c13.559,11.823 23.085,22.706 34.491,39.561l6.63,9.754l3.161,-1.114c4.393,-1.498 -191.474,115.03 -188.089,111.836l2.254,-2.173l-2.653,-5.166c-5.519,-10.692 -8.857,-23.445 -9.894,-37.356c-0.62,-8.529 -0.441,-16.768 0.827,-35.455c1.391,-21.054 0.936,-27.318 -2.3,-32.763c-2.32,-3.904 -5.518,-6.244 -10.687,-7.691l-3.583,-0.999Z" style="fill:#e00900;fill-rule:nonzero;stroke:#000;stroke-width:0.6px;"/><path d="M45.552,129.223c-24.525,14.573 -32.609,46.308 -18.041,70.824c14.568,24.516 46.306,32.588 70.831,18.015c24.525,-14.573 32.609,-46.308 18.041,-70.824c-14.568,-24.516 -46.306,-32.588 -70.831,-18.015Z" style="fill:#fff;stroke:#000;stroke-width:0.6px;stroke-linecap:round;stroke-miterlimit:1.5;"/><path d="M141.621,351.731l12.116,20.39c11.721,19.725 37.251,26.223 56.976,14.502l171.677,-102.015c19.725,-11.721 26.223,-37.251 14.502,-56.976l-12.116,-20.39c-11.721,-19.725 -37.251,-26.223 -56.976,-14.502l-171.677,102.015c-19.725,11.721 -26.223,37.251 -14.502,56.976Z" style="fill:#fff;stroke:#000;stroke-width:0.6px;stroke-linecap:round;stroke-miterlimit:1.5;"/></g></g></svg>