<?xml version="1.0" encoding="utf-8"?>
<!-- Generator: Adobe Illustrator 24.3.0, SVG Export Plug-In . SVG Version: 6.00 Build 0)  -->
<svg version="1.0" id="Isolation_Mode" xmlns="http://www.w3.org/2000/svg" xmlns:xlink="http://www.w3.org/1999/xlink" x="0px"
	 y="0px" viewBox="0 0 260.07 63.24" style="enable-background:new 0 0 260.07 63.24;" xml:space="preserve">
<path style="fill:#898B8D;" d="M244.46,41.87c-1.47-0.01-2.74-0.34-3.81-0.98c-1.06-0.64-1.88-1.53-2.46-2.66
	c-0.58-1.14-0.87-2.44-0.88-3.91c0.01-1.48,0.3-2.79,0.88-3.92c0.57-1.13,1.4-2.01,2.46-2.66c1.07-0.65,2.34-0.98,3.81-0.98
	c1.47,0.01,2.74,0.34,3.81,0.98c1.06,0.64,1.88,1.53,2.46,2.66c0.58,1.13,0.87,2.44,0.88,3.92c-0.01,1.48-0.3,2.78-0.88,3.91
	c-0.57,1.13-1.4,2.01-2.46,2.66C247.2,41.54,245.93,41.86,244.46,41.87L244.46,41.87z M233.19,45.17h4.12v-3.11h0.09
	c0.54,0.78,1.21,1.44,2.02,1.98c0.8,0.55,1.68,0.96,2.63,1.25c0.95,0.28,1.92,0.43,2.91,0.43c1.69-0.01,3.21-0.31,4.56-0.88
	c1.36-0.58,2.52-1.39,3.48-2.42c0.96-1.03,1.7-2.24,2.21-3.62c0.51-1.38,0.77-2.88,0.78-4.49c-0.01-1.63-0.27-3.15-0.79-4.53
	c-0.51-1.38-1.26-2.59-2.22-3.62c-0.97-1.02-2.13-1.82-3.48-2.39c-1.36-0.57-2.87-0.86-4.55-0.87c-1.05,0-2.05,0.15-3.01,0.45
	c-0.97,0.3-1.84,0.72-2.63,1.27c-0.78,0.54-1.42,1.19-1.92,1.95h-0.09V10.55h-4.12V45.17L233.19,45.17z M212.12,32.53
	c0-0.73,0.16-1.47,0.48-2.21c0.31-0.74,0.76-1.42,1.36-2.04c0.59-0.62,1.3-1.11,2.12-1.5c0.82-0.37,1.75-0.57,2.77-0.58
	c1.39,0.01,2.54,0.29,3.46,0.83c0.92,0.55,1.61,1.29,2.07,2.24c0.47,0.95,0.71,2.03,0.74,3.24H212.12L212.12,32.53z M229.52,35.83
	v-1.47c0-1.13-0.12-2.24-0.36-3.33c-0.24-1.1-0.63-2.14-1.15-3.11c-0.53-0.98-1.21-1.84-2.03-2.59c-0.83-0.75-1.82-1.34-2.99-1.76
	c-1.17-0.43-2.51-0.65-4.04-0.66c-1.63,0.01-3.13,0.3-4.49,0.87c-1.37,0.57-2.55,1.37-3.55,2.39c-1.01,1.03-1.79,2.24-2.33,3.62
	c-0.55,1.38-0.83,2.89-0.84,4.53c0.01,1.63,0.27,3.12,0.78,4.5c0.52,1.38,1.26,2.59,2.24,3.62c0.97,1.03,2.14,1.83,3.52,2.4
	c1.37,0.58,2.92,0.87,4.64,0.88c2.08,0,3.92-0.37,5.51-1.11c1.59-0.73,2.96-1.85,4.11-3.33l-3.11-2.38c-0.79,1-1.67,1.78-2.63,2.37
	c-0.96,0.58-2.07,0.87-3.32,0.89c-0.96,0-1.88-0.15-2.75-0.45c-0.88-0.3-1.66-0.72-2.34-1.28c-0.69-0.56-1.23-1.22-1.63-2
	c-0.4-0.77-0.6-1.63-0.61-2.59H229.52L229.52,35.83z M180.06,45.17h4.44l5.17-16.21h0.09l5.72,16.21h4.17l7.01-21.7h-4.35
	l-4.67,16.21h-0.09l-5.5-16.21h-4.35l-5.17,16.21h-0.09l-4.9-16.21h-4.63L180.06,45.17L180.06,45.17z"/>
<path style="fill:#0D90C0;" d="M155.19,40.91c0.7,1,1.46,1.79,2.29,2.37c0.83,0.59,1.75,1,2.75,1.25c0.99,0.24,2.09,0.37,3.3,0.36
	c1.07,0,2.12-0.12,3.14-0.37c1.01-0.25,1.92-0.64,2.74-1.18c0.82-0.53,1.46-1.23,1.95-2.08c0.48-0.85,0.73-1.88,0.74-3.1
	c-0.01-1.07-0.19-1.98-0.56-2.72c-0.37-0.74-0.88-1.35-1.52-1.83c-0.65-0.48-1.39-0.86-2.23-1.16c-0.85-0.29-1.75-0.53-2.7-0.7
	c-0.72-0.14-1.4-0.29-2.05-0.47c-0.64-0.18-1.21-0.39-1.72-0.63c-0.5-0.24-0.9-0.53-1.19-0.86c-0.29-0.33-0.43-0.72-0.44-1.16
	c0.01-0.5,0.13-0.95,0.38-1.31c0.24-0.37,0.57-0.69,0.98-0.93c0.41-0.24,0.86-0.43,1.36-0.55c0.5-0.12,0.99-0.18,1.49-0.18
	c1.05,0.01,1.96,0.25,2.72,0.72c0.75,0.47,1.36,1.08,1.82,1.85l2.98-1.97c-0.5-0.92-1.11-1.66-1.87-2.23c-0.75-0.57-1.58-1-2.5-1.27
	c-0.92-0.27-1.89-0.4-2.91-0.4c-1.01,0-1.98,0.14-2.93,0.4c-0.95,0.27-1.81,0.66-2.57,1.19c-0.76,0.53-1.37,1.19-1.82,1.98
	c-0.45,0.79-0.69,1.7-0.7,2.75c0.01,1.1,0.21,2.01,0.61,2.72c0.4,0.71,0.94,1.28,1.64,1.72c0.7,0.44,1.5,0.79,2.4,1.06
	c0.91,0.27,1.88,0.51,2.9,0.73c0.58,0.12,1.14,0.26,1.68,0.42c0.54,0.16,1.04,0.36,1.47,0.6c0.43,0.24,0.78,0.56,1.04,0.94
	c0.25,0.38,0.38,0.86,0.39,1.43c-0.01,0.58-0.15,1.08-0.42,1.5c-0.27,0.41-0.64,0.76-1.1,1.02c-0.45,0.27-0.96,0.46-1.51,0.59
	c-0.56,0.12-1.12,0.18-1.69,0.18c-0.83,0-1.58-0.12-2.23-0.36c-0.65-0.24-1.24-0.57-1.77-1.01c-0.53-0.43-1.03-0.94-1.5-1.52
	L155.19,40.91L155.19,40.91z M136.95,40.91c0.7,1,1.46,1.79,2.29,2.37c0.83,0.59,1.75,1,2.75,1.25c0.99,0.24,2.09,0.37,3.3,0.36
	c1.08,0,2.12-0.12,3.14-0.37c1.02-0.25,1.92-0.64,2.74-1.18c0.82-0.53,1.46-1.23,1.95-2.08c0.48-0.85,0.73-1.88,0.74-3.1
	c-0.01-1.07-0.19-1.98-0.56-2.72c-0.37-0.74-0.88-1.35-1.52-1.83c-0.65-0.48-1.39-0.86-2.23-1.16c-0.85-0.29-1.75-0.53-2.7-0.7
	c-0.72-0.14-1.4-0.29-2.04-0.47c-0.64-0.18-1.21-0.39-1.72-0.63c-0.5-0.24-0.9-0.53-1.19-0.86c-0.29-0.33-0.44-0.72-0.44-1.16
	c0.01-0.5,0.13-0.95,0.38-1.31c0.24-0.37,0.57-0.69,0.98-0.93c0.41-0.24,0.86-0.43,1.36-0.55c0.5-0.12,0.99-0.18,1.49-0.18
	c1.05,0.01,1.96,0.25,2.72,0.72c0.75,0.47,1.36,1.08,1.82,1.85l2.98-1.97c-0.5-0.92-1.11-1.66-1.87-2.23c-0.75-0.57-1.58-1-2.5-1.27
	c-0.92-0.27-1.89-0.4-2.91-0.4c-1.01,0-1.98,0.14-2.93,0.4c-0.95,0.27-1.81,0.66-2.57,1.19c-0.76,0.53-1.37,1.19-1.82,1.98
	c-0.45,0.79-0.69,1.7-0.69,2.75c0.01,1.1,0.21,2.01,0.61,2.72c0.4,0.71,0.94,1.28,1.64,1.72c0.69,0.44,1.5,0.79,2.4,1.06
	c0.91,0.27,1.88,0.51,2.9,0.73c0.58,0.12,1.14,0.26,1.68,0.42c0.54,0.16,1.04,0.36,1.47,0.6c0.44,0.24,0.78,0.56,1.04,0.94
	c0.25,0.38,0.38,0.86,0.39,1.43c-0.01,0.58-0.15,1.08-0.42,1.5c-0.27,0.41-0.64,0.76-1.1,1.02c-0.45,0.27-0.96,0.46-1.51,0.59
	c-0.56,0.12-1.12,0.18-1.69,0.18c-0.83,0-1.58-0.12-2.23-0.36c-0.65-0.24-1.24-0.57-1.77-1.01c-0.53-0.43-1.03-0.94-1.5-1.52
	L136.95,40.91L136.95,40.91z M116.02,33.63c0-1.13,0.18-2.18,0.53-3.14c0.36-0.97,0.87-1.81,1.53-2.53c0.66-0.72,1.46-1.28,2.4-1.69
	c0.93-0.4,1.98-0.6,3.14-0.61c1.16,0.01,2.21,0.21,3.14,0.61c0.94,0.41,1.73,0.97,2.4,1.69c0.66,0.73,1.18,1.57,1.53,2.53
	c0.35,0.96,0.53,2.01,0.53,3.14c0,1.13-0.18,2.18-0.53,3.14c-0.36,0.96-0.87,1.81-1.53,2.53c-0.66,0.72-1.46,1.28-2.4,1.69
	c-0.93,0.4-1.98,0.6-3.14,0.61c-1.16-0.01-2.21-0.21-3.14-0.61c-0.94-0.4-1.73-0.97-2.4-1.69c-0.66-0.73-1.17-1.57-1.53-2.53
	C116.2,35.81,116.02,34.76,116.02,33.63L116.02,33.63z M112.17,33.63c0.01,1.68,0.3,3.21,0.86,4.58c0.56,1.37,1.36,2.56,2.39,3.56
	c1.03,1,2.23,1.77,3.62,2.31c1.39,0.53,2.92,0.81,4.57,0.82c1.66-0.01,3.18-0.28,4.57-0.82c1.39-0.54,2.6-1.31,3.62-2.31
	c1.03-0.99,1.83-2.18,2.39-3.56c0.56-1.37,0.85-2.9,0.86-4.58c-0.01-1.68-0.3-3.2-0.86-4.58c-0.56-1.38-1.36-2.56-2.39-3.56
	c-1.02-0.99-2.24-1.76-3.62-2.3c-1.39-0.54-2.92-0.81-4.57-0.82c-1.66,0.01-3.18,0.28-4.57,0.82c-1.39,0.54-2.6,1.31-3.62,2.3
	c-1.03,1-1.83,2.18-2.39,3.56C112.47,30.43,112.18,31.95,112.17,33.63L112.17,33.63z M99.39,44.34h3.57V33.9
	c0-1.64,0.21-3.05,0.66-4.24c0.44-1.19,1.13-2.11,2.06-2.75c0.92-0.64,2.11-0.97,3.56-0.98c0.32,0,0.65,0.02,0.98,0.07
	c0.33,0.05,0.65,0.11,0.95,0.21l0.23-3.62c-0.25-0.09-0.5-0.15-0.75-0.18c-0.25-0.03-0.49-0.05-0.72-0.05
	c-1.18,0.01-2.25,0.21-3.21,0.59c-0.95,0.38-1.77,0.88-2.44,1.5c-0.67,0.61-1.17,1.27-1.5,1.99h-0.09c-0.01-0.6-0.02-1.19-0.04-1.78
	c-0.03-0.59-0.05-1.17-0.05-1.75H99.2c0.01,0.71,0.04,1.49,0.09,2.34c0.05,0.85,0.08,1.76,0.09,2.75V44.34L99.39,44.34z
	 M95.12,16.18c-0.92-1.19-2-2.16-3.21-2.91c-1.21-0.75-2.53-1.3-3.92-1.65c-1.4-0.36-2.84-0.53-4.31-0.53
	c-1.93,0.01-3.73,0.29-5.41,0.85c-1.67,0.56-3.19,1.37-4.55,2.4c-1.35,1.04-2.52,2.26-3.49,3.67c-0.97,1.41-1.72,2.98-2.24,4.69
	c-0.53,1.7-0.79,3.51-0.79,5.43c0.01,1.98,0.28,3.82,0.82,5.55c0.54,1.73,1.31,3.3,2.3,4.7c0.99,1.4,2.17,2.61,3.54,3.63
	c1.37,1.01,2.88,1.79,4.53,2.33c1.66,0.54,3.41,0.82,5.28,0.82c2.6,0.01,4.92-0.45,6.99-1.38c2.07-0.92,3.83-2.36,5.28-4.3
	l-2.89-2.43c-1.14,1.47-2.5,2.59-4.07,3.36c-1.57,0.77-3.34,1.16-5.31,1.17c-1.83-0.01-3.49-0.36-5.01-1.05
	c-1.5-0.69-2.81-1.64-3.91-2.87c-1.1-1.22-1.95-2.65-2.54-4.27c-0.6-1.63-0.9-3.39-0.91-5.27c0-1.43,0.2-2.8,0.59-4.13
	c0.4-1.32,0.95-2.55,1.68-3.68c0.73-1.13,1.6-2.11,2.62-2.96c1.02-0.85,2.16-1.5,3.41-1.98c1.26-0.47,2.62-0.71,4.07-0.72
	c1.05,0,2.06,0.15,3.06,0.44c0.99,0.29,1.92,0.73,2.78,1.31c0.86,0.59,1.62,1.31,2.27,2.18L95.12,16.18L95.12,16.18z"/>
<path style="fill-rule:evenodd;clip-rule:evenodd;fill:#05688A;" d="M8.32,15.43c0,3.5,2.84,6.34,6.34,6.34
	c3.5,0,6.34-2.84,6.34-6.34c0-3.5-2.84-6.34-6.34-6.34C11.15,9.09,8.32,11.93,8.32,15.43L8.32,15.43z M6.24,7.02L6.24,7.02
	c4.63-4.63,12.21-4.63,16.84,0l4.08,4.08l-2.91,2.91l-4.2-4.2c-3.03-3.03-7.98-3.03-11.01,0l0,0C6,12.84,6,17.79,9.03,20.82
	l10.92,10.92l-2.91,2.92l-10.8-10.8C1.61,19.23,1.61,11.65,6.24,7.02L6.24,7.02z"/>
<path style="fill-rule:evenodd;clip-rule:evenodd;fill:#0D90C0;" d="M47.86,42.3c0-3.5-2.84-6.34-6.34-6.34
	c-3.5,0-6.34,2.84-6.34,6.34c0,3.5,2.84,6.34,6.34,6.34C45.03,48.64,47.86,45.8,47.86,42.3L47.86,42.3z M49.94,50.72L49.94,50.72
	c-4.63,4.63-12.21,4.63-16.84,0l-4.13-4.13l2.91-2.92l4.25,4.25c3.03,3.03,7.98,3.03,11.01,0l0,0c3.03-3.03,3.03-7.98,0-11.01
	L36.23,25.99l2.91-2.92l10.8,10.8C54.57,38.51,54.57,46.08,49.94,50.72L49.94,50.72z"/>
<path style="fill-rule:evenodd;clip-rule:evenodd;fill:#BBBDBF;" d="M14.65,48.64c3.5,0,6.34-2.84,6.34-6.34
	c0-3.5-2.84-6.34-6.34-6.34c-3.5,0-6.34,2.84-6.34,6.34C8.32,45.8,11.15,48.64,14.65,48.64L14.65,48.64z M6.24,50.72L6.24,50.72
	c-4.63-4.63-4.63-12.21,0-16.84l4.13-4.13l2.92,2.91l-4.25,4.25C6,39.94,6,44.9,9.03,47.92l0,0c3.03,3.03,7.98,3.03,11.01,0
	l10.92-10.92l2.92,2.91l-10.8,10.8C18.45,55.35,10.87,55.35,6.24,50.72L6.24,50.72z M11.25,28.87L11.25,28.87l2.92,2.91l0,0
	L11.25,28.87L11.25,28.87z"/>
<path style="fill-rule:evenodd;clip-rule:evenodd;fill:#898B8D;" d="M41.53,9.09c-3.5,0-6.34,2.84-6.34,6.34s2.84,6.34,6.34,6.34
	c3.5,0,6.34-2.84,6.34-6.34C47.86,11.93,45.03,9.09,41.53,9.09L41.53,9.09z M49.94,7.02L49.94,7.02c4.63,4.63,4.63,12.21,0,16.84
	l-4.12,4.12l-2.92-2.92l4.24-4.24c3.03-3.03,3.03-7.98,0-11.01l0,0c-3.03-3.03-7.98-3.03-11.01,0L25.22,20.73l-2.92-2.91l10.8-10.8
	C37.73,2.39,45.31,2.39,49.94,7.02L49.94,7.02z M44.94,28.86L44.94,28.86l-2.92-2.91l0.01-0.01L44.94,28.86L44.94,28.86z"/>
<path style="fill:#8A8C8F;" d="M250.83,60.38c0.36,0,0.7-0.05,1.01-0.15c0.31-0.09,0.58-0.24,0.82-0.42
	c0.23-0.18,0.41-0.41,0.54-0.67c0.13-0.27,0.2-0.57,0.2-0.91V58.2c0-0.32-0.07-0.59-0.2-0.82c-0.13-0.22-0.31-0.41-0.53-0.57
	c-0.22-0.15-0.47-0.28-0.74-0.39c-0.27-0.11-0.55-0.2-0.83-0.28c-0.24-0.07-0.47-0.15-0.7-0.22c-0.22-0.08-0.42-0.16-0.59-0.25
	c-0.17-0.09-0.31-0.2-0.41-0.32c-0.1-0.13-0.15-0.27-0.15-0.44v-0.03c0-0.2,0.06-0.38,0.17-0.53c0.11-0.16,0.27-0.28,0.48-0.37
	c0.21-0.09,0.45-0.13,0.74-0.14c0.35,0,0.71,0.06,1.08,0.19c0.37,0.12,0.72,0.29,1.06,0.51l0.49-0.8c-0.25-0.16-0.52-0.3-0.81-0.42
	c-0.29-0.12-0.58-0.21-0.89-0.27c-0.3-0.07-0.6-0.1-0.9-0.1c-0.36,0-0.69,0.05-0.98,0.15c-0.3,0.1-0.56,0.24-0.78,0.42
	c-0.22,0.18-0.39,0.39-0.51,0.65c-0.12,0.25-0.18,0.53-0.18,0.84v0.03c0,0.33,0.07,0.6,0.21,0.83c0.14,0.22,0.32,0.41,0.56,0.56
	c0.23,0.15,0.49,0.27,0.77,0.37c0.28,0.1,0.56,0.19,0.85,0.27c0.24,0.07,0.47,0.13,0.68,0.21c0.22,0.07,0.41,0.16,0.57,0.25
	c0.17,0.09,0.3,0.21,0.4,0.34c0.1,0.13,0.14,0.28,0.15,0.46v0.03c0,0.23-0.07,0.43-0.2,0.6c-0.13,0.17-0.3,0.3-0.53,0.39
	c-0.22,0.09-0.48,0.14-0.77,0.14c-0.43,0-0.85-0.08-1.27-0.24c-0.42-0.16-0.83-0.38-1.22-0.68l-0.54,0.76
	c0.27,0.22,0.57,0.41,0.91,0.56c0.33,0.15,0.67,0.28,1.03,0.36C250.13,60.33,250.48,60.38,250.83,60.38 M243.75,60.36
	c0.26,0,0.49-0.03,0.7-0.08c0.21-0.05,0.41-0.13,0.6-0.22v-0.91c-0.19,0.09-0.36,0.15-0.53,0.19c-0.17,0.04-0.34,0.06-0.52,0.06
	c-0.24,0-0.46-0.04-0.64-0.12c-0.18-0.08-0.32-0.2-0.42-0.38c-0.1-0.18-0.15-0.41-0.15-0.7v-4.19h2.29v-0.94h-2.29v-2.16h-1.07v2.16
	h-1v0.94h1v4.33c0,0.48,0.09,0.87,0.27,1.17c0.18,0.3,0.42,0.51,0.72,0.65C243.02,60.3,243.36,60.37,243.75,60.36z M232.25,56.26
	c0.04-0.35,0.12-0.68,0.25-0.97c0.13-0.3,0.3-0.55,0.5-0.77c0.21-0.22,0.44-0.39,0.71-0.51c0.27-0.12,0.56-0.18,0.88-0.18
	c0.36,0,0.68,0.07,0.95,0.2c0.27,0.13,0.51,0.31,0.7,0.53c0.19,0.23,0.34,0.49,0.45,0.78c0.11,0.29,0.18,0.6,0.2,0.93H232.25z
	 M234.76,60.4c0.45,0,0.86-0.06,1.22-0.17c0.36-0.11,0.68-0.27,0.97-0.47c0.29-0.2,0.55-0.44,0.79-0.71l-0.67-0.6
	c-0.19,0.21-0.4,0.38-0.63,0.53c-0.23,0.15-0.47,0.27-0.74,0.35c-0.27,0.08-0.57,0.13-0.9,0.13c-0.32,0-0.63-0.05-0.92-0.16
	c-0.29-0.11-0.55-0.26-0.78-0.47c-0.23-0.21-0.42-0.46-0.56-0.76c-0.15-0.3-0.24-0.65-0.28-1.03h5.72c0.01-0.06,0.01-0.12,0.01-0.17
	c0-0.05,0-0.11,0-0.18c0-0.53-0.08-1.02-0.23-1.47c-0.15-0.46-0.37-0.86-0.66-1.2c-0.29-0.34-0.64-0.61-1.06-0.81
	c-0.42-0.19-0.89-0.29-1.43-0.3c-0.5,0-0.96,0.1-1.38,0.29c-0.42,0.19-0.79,0.46-1.1,0.8c-0.31,0.34-0.55,0.73-0.72,1.19
	c-0.17,0.45-0.26,0.93-0.26,1.45v0.03c0,0.56,0.1,1.06,0.28,1.52c0.19,0.46,0.44,0.85,0.77,1.18c0.33,0.33,0.71,0.59,1.14,0.76
	C233.8,60.31,234.27,60.4,234.76,60.4z M222.53,56.26c0.04-0.35,0.12-0.68,0.25-0.97c0.13-0.3,0.3-0.55,0.5-0.77
	c0.21-0.22,0.44-0.39,0.71-0.51c0.27-0.12,0.56-0.18,0.88-0.18c0.36,0,0.68,0.07,0.95,0.2c0.27,0.13,0.51,0.31,0.7,0.53
	c0.19,0.23,0.34,0.49,0.45,0.78c0.11,0.29,0.18,0.6,0.21,0.93H222.53z M225.04,60.4c0.45,0,0.86-0.06,1.22-0.17
	c0.36-0.11,0.68-0.27,0.97-0.47c0.29-0.2,0.55-0.44,0.79-0.71l-0.67-0.6c-0.19,0.21-0.41,0.38-0.63,0.53
	c-0.23,0.15-0.47,0.27-0.74,0.35c-0.27,0.08-0.57,0.13-0.9,0.13c-0.32,0-0.63-0.05-0.92-0.16c-0.29-0.11-0.55-0.26-0.78-0.47
	c-0.23-0.21-0.42-0.46-0.56-0.76c-0.15-0.3-0.24-0.65-0.28-1.03h5.72c0.01-0.06,0.01-0.12,0.01-0.17c0-0.05,0-0.11,0-0.18
	c0-0.53-0.08-1.02-0.23-1.47c-0.15-0.46-0.37-0.86-0.66-1.2c-0.29-0.34-0.64-0.61-1.06-0.81c-0.42-0.19-0.89-0.29-1.43-0.3
	c-0.5,0-0.96,0.1-1.38,0.29c-0.42,0.19-0.79,0.46-1.1,0.8c-0.31,0.34-0.55,0.73-0.72,1.19c-0.17,0.45-0.26,0.93-0.26,1.45v0.03
	c0,0.56,0.1,1.06,0.28,1.52c0.19,0.46,0.44,0.85,0.77,1.18c0.33,0.33,0.71,0.59,1.14,0.76C224.07,60.31,224.54,60.4,225.04,60.4z
	 M207.15,60.24h1.08v-4.09c0-0.44,0.09-0.83,0.27-1.17c0.17-0.34,0.41-0.6,0.71-0.79c0.3-0.19,0.64-0.29,1.03-0.29
	c0.38,0,0.71,0.09,0.99,0.25c0.28,0.17,0.49,0.41,0.64,0.73c0.15,0.32,0.22,0.7,0.23,1.15v4.21h1.07v-4.13
	c0-0.35,0.05-0.67,0.16-0.94c0.1-0.28,0.25-0.51,0.43-0.7c0.18-0.19,0.39-0.33,0.63-0.43c0.24-0.1,0.49-0.15,0.77-0.15
	c0.39,0,0.73,0.09,1.01,0.25c0.28,0.17,0.49,0.41,0.64,0.73c0.15,0.32,0.22,0.71,0.22,1.18v4.19h1.07V55.8
	c0-0.59-0.11-1.11-0.33-1.54c-0.21-0.43-0.52-0.76-0.92-0.99c-0.4-0.23-0.88-0.35-1.43-0.35c-0.42,0-0.78,0.07-1.1,0.19
	c-0.32,0.13-0.59,0.3-0.83,0.51c-0.24,0.22-0.44,0.46-0.61,0.72c-0.13-0.27-0.3-0.51-0.51-0.73c-0.21-0.22-0.47-0.38-0.77-0.51
	c-0.3-0.13-0.64-0.19-1.04-0.19c-0.4,0-0.75,0.07-1.04,0.19c-0.29,0.13-0.54,0.29-0.75,0.5c-0.21,0.21-0.39,0.43-0.54,0.67v-1.21
	h-1.08V60.24z M193.75,60.24h1.12v-8.69h3.28v-1.01h-7.68v1.01h3.28V60.24z M185.74,60.24h1.1v-9.7h-1.1V60.24z M170.72,56.26
	c0.04-0.35,0.12-0.68,0.25-0.97c0.13-0.3,0.3-0.55,0.5-0.77c0.21-0.22,0.44-0.39,0.71-0.51c0.27-0.12,0.56-0.18,0.88-0.18
	c0.36,0,0.68,0.07,0.95,0.2c0.27,0.13,0.51,0.31,0.7,0.53c0.19,0.23,0.34,0.49,0.45,0.78c0.11,0.29,0.18,0.6,0.2,0.93H170.72z
	 M173.23,60.4c0.45,0,0.86-0.06,1.22-0.17c0.36-0.11,0.68-0.27,0.97-0.47c0.29-0.2,0.55-0.44,0.79-0.71l-0.67-0.6
	c-0.19,0.21-0.4,0.38-0.63,0.53c-0.23,0.15-0.47,0.27-0.74,0.35c-0.27,0.08-0.57,0.13-0.9,0.13c-0.32,0-0.63-0.05-0.92-0.16
	c-0.29-0.11-0.55-0.26-0.78-0.47c-0.23-0.21-0.42-0.46-0.57-0.76c-0.15-0.3-0.24-0.65-0.28-1.03h5.72c0.01-0.06,0.01-0.12,0.01-0.17
	c0-0.05,0-0.11,0-0.18c0-0.53-0.08-1.02-0.23-1.47c-0.15-0.46-0.37-0.86-0.66-1.2c-0.29-0.34-0.64-0.61-1.06-0.81
	c-0.42-0.19-0.89-0.29-1.43-0.3c-0.5,0-0.96,0.1-1.38,0.29c-0.42,0.19-0.79,0.46-1.1,0.8c-0.31,0.34-0.55,0.73-0.72,1.19
	c-0.17,0.45-0.26,0.93-0.26,1.45v0.03c0,0.56,0.1,1.06,0.28,1.52c0.19,0.46,0.44,0.85,0.77,1.18c0.33,0.33,0.71,0.59,1.14,0.76
	C172.27,60.31,172.73,60.4,173.23,60.4z M163.27,60.24h1.07v-2.86c0-0.54,0.08-1.02,0.23-1.43c0.15-0.41,0.35-0.75,0.61-1.03
	c0.26-0.28,0.57-0.48,0.91-0.62c0.34-0.14,0.71-0.21,1.11-0.21h0.08v-1.15c-0.46-0.01-0.87,0.06-1.25,0.23
	c-0.38,0.17-0.71,0.4-1,0.71c-0.29,0.3-0.52,0.66-0.7,1.06v-1.87h-1.07V60.24z M154.18,56.26c0.04-0.35,0.12-0.68,0.25-0.97
	c0.13-0.3,0.3-0.55,0.5-0.77c0.21-0.22,0.44-0.39,0.71-0.51c0.27-0.12,0.56-0.18,0.88-0.18c0.36,0,0.68,0.07,0.95,0.2
	c0.27,0.13,0.51,0.31,0.7,0.53c0.19,0.23,0.34,0.49,0.45,0.78c0.11,0.29,0.18,0.6,0.2,0.93H154.18z M156.69,60.4
	c0.45,0,0.86-0.06,1.22-0.17c0.36-0.11,0.68-0.27,0.97-0.47c0.29-0.2,0.55-0.44,0.79-0.71l-0.67-0.6c-0.19,0.21-0.4,0.38-0.63,0.53
	c-0.23,0.15-0.47,0.27-0.74,0.35c-0.27,0.08-0.57,0.13-0.9,0.13c-0.32,0-0.63-0.05-0.92-0.16c-0.29-0.11-0.55-0.26-0.78-0.47
	c-0.23-0.21-0.42-0.46-0.57-0.76c-0.15-0.3-0.24-0.65-0.28-1.03h5.72c0.01-0.06,0.01-0.12,0.01-0.17c0-0.05,0-0.11,0-0.18
	c0-0.53-0.08-1.02-0.23-1.47c-0.15-0.46-0.37-0.86-0.66-1.2c-0.29-0.34-0.64-0.61-1.06-0.81c-0.42-0.19-0.89-0.29-1.43-0.3
	c-0.5,0-0.96,0.1-1.38,0.29c-0.42,0.19-0.79,0.46-1.1,0.8c-0.31,0.34-0.55,0.73-0.72,1.19c-0.17,0.45-0.26,0.93-0.26,1.45v0.03
	c0,0.56,0.1,1.06,0.28,1.52c0.19,0.46,0.44,0.85,0.77,1.18c0.33,0.33,0.71,0.59,1.14,0.76C155.73,60.31,156.2,60.4,156.69,60.4z
	 M143.48,60.24h1.07v-4.1c0-0.45,0.1-0.85,0.28-1.18c0.19-0.33,0.44-0.6,0.77-0.78c0.32-0.19,0.69-0.28,1.11-0.28
	c0.43,0,0.79,0.09,1.08,0.27c0.3,0.17,0.52,0.42,0.68,0.74c0.16,0.32,0.23,0.71,0.23,1.15v4.19h1.07v-4.45
	c0-0.57-0.11-1.07-0.33-1.5c-0.22-0.43-0.53-0.76-0.94-1c-0.41-0.24-0.91-0.36-1.49-0.36c-0.41,0-0.77,0.07-1.09,0.19
	c-0.31,0.12-0.58,0.29-0.81,0.5c-0.23,0.21-0.42,0.45-0.57,0.71v-4.2h-1.07V60.24z M131.91,60.29h0.95l1.95-5.66l1.94,5.66h0.94
	l2.54-7.22h-1.12l-1.9,5.75l-1.95-5.78h-0.89l-1.94,5.78l-1.9-5.75h-1.14L131.91,60.29z"/>
</svg>
