<svg width="1128" height="287" viewBox="0 0 1128 287" fill="none" xmlns="http://www.w3.org/2000/svg">
<path d="M374.223 106.08L369.468 105.046C370.806 98.7338 371.487 92.2245 371.487 85.703C371.487 65.6831 365.248 46.6599 353.427 30.6883L357.318 27.7351C369.76 44.5681 376.339 64.6126 376.339 85.703C376.339 92.5691 375.622 99.4228 374.211 106.08H374.223Z" fill="#361C58"/>
<path d="M380.182 127.687L375.694 125.792C380.936 113.081 383.587 99.595 383.587 85.7029C383.587 55.9992 371 27.6243 349.061 7.85052L352.296 4.17139C375.269 24.8803 388.452 54.5841 388.452 85.6906C388.452 100.235 385.667 114.361 380.182 127.675V127.687Z" fill="#361C58"/>
<path d="M385.218 145.135L380.973 142.723C390.605 125.41 395.689 105.686 395.689 85.7029C395.689 54.6579 383.758 25.4586 362.099 3.46995L365.54 0C388.112 22.9115 400.553 53.3536 400.553 85.7029C400.553 106.535 395.251 127.084 385.206 145.135H385.218Z" fill="#361C58"/>
<path d="M389.632 161.131L385.618 158.351C395.25 144.126 401.854 128.364 405.247 111.519L410.014 112.503C406.5 130 399.64 146.366 389.632 161.144V161.131Z" fill="#361C58"/>
<path d="M389.997 19.9831C386.896 14.7166 383.393 9.63474 379.587 4.86048L383.369 1.77197C387.322 6.7308 390.97 12.0096 394.181 17.4729L389.997 19.9954V19.9831Z" fill="#361C58"/>
<path d="M398.023 170.372L394.059 167.517C410.975 143.548 419.914 115.259 419.914 85.7152C419.914 78.1847 419.318 70.6172 418.151 63.2466L422.954 62.4714C424.158 70.1004 424.779 77.9263 424.779 85.7152C424.779 116.293 415.524 145.578 398.023 170.384V170.372Z" fill="#361C58"/>
<path d="M412.884 169.941L408.773 167.32C423.988 142.92 432.026 114.693 432.026 85.7028C432.026 69.4974 429.545 53.5503 424.644 38.2924L429.266 36.7666C434.325 52.5167 436.891 68.9806 436.891 85.6905C436.891 115.616 428.597 144.741 412.896 169.929L412.884 169.941Z" fill="#361C58"/>
<path d="M427.09 169.794L422.857 167.358C436.77 142.6 444.128 114.361 444.128 85.7031C444.128 62.1518 439.336 39.4002 429.899 18.0883L434.338 16.0703C444.067 38.0221 448.993 61.4504 448.993 85.6908C448.993 115.198 441.416 144.274 427.09 169.782V169.794Z" fill="#361C58"/>
<path d="M461.106 85.7027H456.241C456.241 57.3525 449.844 30.2697 437.221 5.1925L441.55 2.96533C454.527 28.7439 461.094 56.5773 461.094 85.715L461.106 85.7027Z" fill="#361C58"/>
<path d="M469.666 123.097L464.887 122.162C467.173 110.239 468.341 97.9707 468.341 85.7028C468.341 57.4756 462.37 30.3066 450.585 4.95876L454.987 2.86694C467.076 28.8793 473.205 56.7496 473.205 85.7028C473.205 98.2783 472.014 110.866 469.666 123.109V123.097Z" fill="#361C58"/>
<path d="M475.918 147.916L471.272 146.439C477.353 126.862 480.442 106.424 480.442 85.7028C480.442 57.7094 474.897 30.6019 463.951 5.13102L468.414 3.17456C479.627 29.2607 485.307 57.0326 485.307 85.7028C485.307 106.929 482.145 127.859 475.918 147.916Z" fill="#361C58"/>
<path d="M481.5 168.391L476.988 166.533C487.326 140.865 492.555 113.671 492.555 85.7026H497.42C497.42 114.311 492.056 142.12 481.488 168.391H481.5Z" fill="#361C58"/>
<path d="M494.428 168.637L489.892 166.878C499.706 140.988 504.68 113.684 504.68 85.7028C504.68 80.8424 504.522 75.9205 504.218 71.0847L509.07 70.7771C509.387 75.7236 509.533 80.744 509.533 85.7028C509.533 114.287 504.449 142.182 494.416 168.637H494.428Z" fill="#361C58"/>
<path d="M507.368 168.576L502.795 166.902C512.074 140.915 516.781 113.598 516.781 85.703C516.781 68.9315 515.054 52.1847 511.649 35.9178L516.404 34.8965C519.882 51.4956 521.645 68.587 521.645 85.703C521.645 114.164 516.842 142.047 507.368 168.576Z" fill="#361C58"/>
<path d="M520.223 168.514L515.613 166.927C524.418 140.853 528.882 113.524 528.882 85.7027C528.882 59.5796 524.941 33.838 517.158 9.17916L521.791 7.67798C529.721 32.8167 533.746 59.0628 533.746 85.6904C533.746 114.053 529.198 141.911 520.223 168.502V168.514Z" fill="#361C58"/>
<path d="M540.69 73.0167C539.607 49.9698 535.558 27.206 528.662 5.36495L533.296 3.86377C540.325 26.1108 544.448 49.3054 545.554 72.7829L540.69 73.0167Z" fill="#361C58"/>
<path d="M549.447 40.409C547.526 28.6457 544.814 16.8946 541.396 5.50035L546.054 4.073C549.533 15.6764 552.293 27.6244 554.251 39.6092L549.447 40.409Z" fill="#361C58"/>
<path d="M556.476 14.6674C555.71 11.6158 554.883 8.55189 554.02 5.53722L558.69 4.17139C559.565 7.23528 560.404 10.3607 561.183 13.4615L556.464 14.6674H556.476Z" fill="#361C58"/>
<path d="M186.972 106.08C185.561 99.4228 184.844 92.5691 184.844 85.703C184.844 64.6126 191.423 44.5681 203.864 27.7351L207.756 30.6883C195.947 46.6722 189.696 65.6954 189.696 85.703C189.696 92.2245 190.377 98.7338 191.715 105.046L186.96 106.08H186.972Z" fill="#361C58"/>
<path d="M181.012 127.687C175.527 114.373 172.742 100.247 172.742 85.7026C172.742 54.5961 185.913 24.88 208.899 4.18335L212.133 7.86248C190.194 27.6363 177.607 56.0111 177.607 85.7149C177.607 99.607 180.258 113.093 185.5 125.804L181.012 127.699V127.687Z" fill="#361C58"/>
<path d="M175.978 145.135C165.944 127.084 160.63 106.535 160.63 85.7029C160.63 53.3536 173.059 22.9115 195.643 0L199.085 3.46995C177.425 25.4463 165.495 54.6579 165.495 85.7029C165.495 105.698 170.578 125.41 180.21 142.723L175.966 145.135H175.978Z" fill="#361C58"/>
<path d="M171.563 161.131C161.554 146.353 154.708 129.988 151.181 112.49L155.948 111.506C159.341 128.351 165.945 144.114 175.577 158.338L171.563 161.119V161.131Z" fill="#361C58"/>
<path d="M171.198 19.9829L167.015 17.4604C170.225 11.9971 173.862 6.70605 177.826 1.75952L181.609 4.84802C177.79 9.62228 174.287 14.7165 171.198 19.9706V19.9829Z" fill="#361C58"/>
<path d="M163.171 170.372C145.671 145.566 136.416 116.28 136.416 85.7027C136.416 77.9138 137.024 70.088 138.24 62.459L143.044 63.2342C141.877 70.6048 141.281 78.1722 141.281 85.7027C141.281 115.259 150.219 143.548 167.136 167.505L163.171 170.36V170.372Z" fill="#361C58"/>
<path d="M148.309 169.942C132.609 144.754 124.314 115.628 124.314 85.7029C124.314 68.9807 126.881 52.5292 131.94 36.7791L136.561 38.3048C131.66 53.5628 129.179 69.5098 129.179 85.7152C129.179 114.705 137.218 142.933 152.432 167.333L148.321 169.954L148.309 169.942Z" fill="#361C58"/>
<path d="M134.106 169.794C119.78 144.298 112.203 115.222 112.203 85.7028C112.203 61.45 117.129 38.0217 126.858 16.0823L131.297 18.1003C121.847 39.4122 117.068 62.1637 117.068 85.7151C117.068 114.373 124.425 142.612 138.338 167.37L134.106 169.806V169.794Z" fill="#361C58"/>
<path d="M104.953 85.7028H100.089C100.089 56.5774 106.668 28.7317 119.632 2.95312L123.962 5.18029C111.338 30.2575 104.941 57.3526 104.941 85.6905L104.953 85.7028Z" fill="#361C58"/>
<path d="M91.5283 123.097C89.1811 110.854 87.9893 98.2782 87.9893 85.6904C87.9893 56.7249 94.1187 28.8545 106.207 2.85449L110.61 4.94631C98.8252 30.2942 92.8539 57.4632 92.8539 85.6904C92.8539 97.9582 94.0214 110.226 96.3078 122.149L91.5283 123.085V123.097Z" fill="#361C58"/>
<path d="M85.2774 147.916C79.0385 127.859 75.8887 106.929 75.8887 85.7028C75.8887 57.0203 81.5681 29.2607 92.7811 3.17456L97.2444 5.13102C86.299 30.5896 80.7533 57.6971 80.7533 85.7028C80.7533 106.424 83.8423 126.85 89.9231 146.439L85.2774 147.916Z" fill="#361C58"/>
<path d="M79.707 168.391C69.1386 142.133 63.7754 114.312 63.7754 85.7031H68.64C68.64 113.672 73.8816 140.866 84.2068 166.533L79.6949 168.391H79.707Z" fill="#361C58"/>
<path d="M66.7789 168.637C56.7578 142.182 51.6621 114.287 51.6621 85.7028C51.6621 80.7317 51.8202 75.7113 52.1242 70.7771L56.9767 71.0847C56.6727 75.9205 56.5146 80.8424 56.5146 85.7028C56.5146 113.684 61.4887 140.988 71.303 166.878L66.7668 168.637H66.7789Z" fill="#361C58"/>
<path d="M53.8275 168.576C44.3536 142.047 39.5498 114.164 39.5498 85.703C39.5498 68.587 41.3132 51.4956 44.7914 34.8965L49.5466 35.9178C46.1414 52.1724 44.4144 68.9315 44.4144 85.703C44.4144 113.598 49.121 140.915 58.4002 166.902L53.8275 168.576Z" fill="#361C58"/>
<path d="M40.9719 168.514C31.9967 141.923 27.4482 114.065 27.4482 85.7028C27.4482 59.0629 31.4737 32.8168 39.4031 7.69043L44.0366 9.19161C36.2532 33.8381 32.3129 59.5797 32.3129 85.7151C32.3129 113.536 36.7762 140.865 45.5811 166.939L40.9719 168.526V168.514Z" fill="#361C58"/>
<path d="M20.5043 73.0167L15.6396 72.7829C16.7342 49.3054 20.857 26.1108 27.8985 3.86377L32.5321 5.36495C25.6243 27.206 21.5867 49.9698 20.5043 73.0167Z" fill="#361C58"/>
<path d="M11.7599 40.409L6.95605 39.6092C8.91407 27.6367 11.6747 15.6764 15.1529 4.073L19.8108 5.50035C16.3934 16.8946 13.6814 28.6334 11.7599 40.409Z" fill="#361C58"/>
<path d="M4.71869 14.6674L0 13.4615C0.77834 10.3607 1.61749 7.23528 2.49312 4.17139L7.16316 5.53722C6.29969 8.55189 5.4727 11.6281 4.70652 14.6674H4.71869Z" fill="#361C58"/>
<path d="M280.592 96.8386C274.524 96.8386 269.586 91.8428 269.586 85.7027C269.586 79.5626 274.524 74.5669 280.592 74.5669C286.661 74.5669 291.598 79.5626 291.598 85.7027C291.598 91.8428 286.661 96.8386 280.592 96.8386ZM280.592 79.5011C277.211 79.5011 274.463 82.282 274.463 85.7027C274.463 89.1235 277.211 91.9044 280.592 91.9044C283.973 91.9044 286.722 89.1235 286.722 85.7027C286.722 82.282 283.973 79.5011 280.592 79.5011Z" fill="#361C58"/>
<path d="M280.592 109.119C267.847 109.119 257.485 98.6228 257.485 85.7397C257.485 72.8566 267.859 62.3606 280.592 62.3606C293.325 62.3606 303.699 72.8566 303.699 85.7397C303.699 98.6228 293.325 109.119 280.592 109.119ZM280.592 67.2825C270.535 67.2825 262.35 75.5636 262.35 85.7397C262.35 95.9158 270.535 104.197 280.592 104.197C290.65 104.197 298.835 95.9158 298.835 85.7397C298.835 75.5636 290.65 67.2825 280.592 67.2825Z" fill="#361C58"/>
<path d="M280.592 121.387C261.17 121.387 245.36 105.403 245.36 85.7398C245.36 66.0767 261.158 50.0928 280.592 50.0928C300.027 50.0928 315.824 66.0767 315.824 85.7398C315.824 105.403 300.027 121.387 280.592 121.387ZM280.592 55.1008C263.895 55.1008 250.31 68.8453 250.31 85.7398C250.31 102.634 263.895 116.379 280.592 116.379C297.29 116.379 310.875 102.634 310.875 85.7398C310.875 68.8453 297.29 55.1008 280.592 55.1008Z" fill="#361C58"/>
<path d="M280.591 133.642C254.48 133.642 233.246 112.158 233.246 85.7397C233.246 59.3213 254.48 37.8372 280.591 37.8372C306.702 37.8372 327.936 59.3213 327.936 85.7397C327.936 112.158 306.702 133.642 280.591 133.642ZM280.591 42.8083C257.192 42.8083 238.159 62.0653 238.159 85.7397C238.159 109.414 257.192 128.671 280.591 128.671C303.99 128.671 323.023 109.414 323.023 85.7397C323.023 62.0653 303.99 42.8083 280.591 42.8083Z" fill="#361C58"/>
<path d="M310.023 137.961L307.603 133.692C321.394 125.706 331.087 112.121 334.127 96.4204L338.919 97.3802C335.598 114.508 325.067 129.262 310.035 137.974L310.023 137.961Z" fill="#361C58"/>
<path d="M313.392 41.6393C303.882 34.3918 292.535 30.565 280.593 30.565C268.65 30.565 257.826 34.2318 248.45 41.1471L245.543 37.1234C255.771 29.5683 267.896 25.5815 280.593 25.5815C293.289 25.5815 305.974 29.7529 316.348 37.6649L313.38 41.6516L313.392 41.6393Z" fill="#361C58"/>
<path d="M251.064 137.974C236.47 129.483 226.072 115.111 222.533 98.5492L227.349 97.491C230.596 112.687 240.143 125.866 253.521 133.655L251.064 137.974Z" fill="#361C58"/>
<path d="M313.671 149.897L311.421 145.529C324.446 138.638 335.026 127.416 341.156 113.93L345.583 115.997C338.991 130.492 327.644 142.514 313.671 149.909V149.897Z" fill="#361C58"/>
<path d="M307.03 23.822C298.675 20.1552 289.773 18.2972 280.591 18.2972C271.409 18.2972 262.871 20.0814 254.65 23.6005L252.729 19.0108C261.546 15.2333 270.922 13.3137 280.578 13.3137C290.235 13.3137 300 15.3071 308.976 19.2446L307.018 23.8097L307.03 23.822Z" fill="#361C58"/>
<path d="M247.439 149.897C233.708 142.612 222.507 130.812 215.892 116.637L220.343 114.508C226.496 127.699 236.931 138.712 249.725 145.479L247.439 149.884V149.897Z" fill="#361C58"/>
<path d="M243.889 161.783C230.341 155.077 218.824 144.791 210.554 131.981L214.64 129.274C222.423 141.333 233.271 151.041 246.017 157.354L243.876 161.783H243.889Z" fill="#361C58"/>
<path d="M317.234 161.808L315.094 157.378C328.143 150.93 339.186 140.951 347.006 128.523L351.128 131.194C342.822 144.384 331.098 154.954 317.222 161.808H317.234Z" fill="#361C58"/>
<path d="M301.521 8.87154C288.107 5.09397 273.525 5.05705 260.087 8.74849L258.81 3.98653C273.087 0.0613043 288.569 0.0982187 302.834 4.10958L301.533 8.87154H301.521Z" fill="#361C58"/>
<path d="M327.779 170.027L325.347 165.758C336.414 159.359 345.778 151.017 353.476 140.668L357.307 143.695C349.123 154.56 339.454 163.334 327.779 170.015V170.027Z" fill="#361C58"/>
<path d="M233.405 170.027L235.838 165.758C224.771 159.359 215.406 151.017 207.708 140.668L203.877 143.695C212.062 154.56 221.73 163.334 233.405 170.015V170.027Z" fill="#361C58"/>
<path d="M349.73 169.474L346.653 165.647C350.959 162.042 354.875 158.055 358.547 153.81L362.184 157.095C358.353 161.513 354.23 165.733 349.73 169.474Z" fill="#361C58"/>
<path d="M211.453 169.474L214.53 165.647C210.225 162.042 206.309 158.055 202.636 153.81L199 157.095C202.831 161.513 206.954 165.733 211.453 169.474Z" fill="#361C58"/>
<path d="M577.102 27.2672V3.43286H703.326V27.2672H653.513V166.951H626.915V27.2672H577.102Z" fill="#361C58"/>
<path d="M717.543 166.939V3.43286H823.032V27.2672H744.14V72.6473H809.168V95.6819H744.14V143.117H825.842V166.951H717.543V166.939Z" fill="#361C58"/>
<path d="M853.277 145.615C839.523 130.566 832.651 110.386 832.651 85.186C832.651 59.9858 839.754 40.0274 853.837 24.8679C867.92 9.70841 886.856 2.06714 910.631 2.06714C928.995 2.06714 944.44 7.19824 956.833 17.5712C969.226 27.9441 976.778 41.7501 979.368 59.0752H951.981C946.569 38.2063 931.136 25.6677 909.488 25.6677C894.274 25.6677 882.222 31.1434 873.308 42.0823C864.296 53.1443 859.784 67.504 859.784 85.186C859.784 102.868 864.174 117.117 873.076 128.179C881.869 139.241 893.812 144.717 908.807 144.717C931.002 144.717 946.678 132.4 951.75 111.42H979.137C976.547 128.634 968.995 142.44 956.261 152.813C943.528 163.186 927.864 168.317 909.038 168.317C885.591 168.317 866.996 160.787 853.253 145.627L853.277 145.615Z" fill="#361C58"/>
<path d="M998.973 166.939V3.43286H1025.57V72.192H1100.51V3.43286H1127.11V166.939H1100.51V95.9034H1025.57V166.939H998.973Z" fill="#361C58"/>
<path d="M177.504 212.586H263.127V231.091H177.504V212.586ZM231.698 192.318V251.359H209.08V192.318H231.698ZM272.618 228.007H303.753C304.341 230.65 306.152 233 309.187 235.056C312.223 237.015 316.286 238.532 321.377 239.609C326.469 240.686 332.294 241.225 338.855 241.225C345.121 241.225 350.163 240.882 353.982 240.197C357.8 239.413 360.542 238.287 362.206 236.819C363.871 235.252 364.703 233.343 364.703 231.091C364.703 228.839 363.479 227.126 361.031 225.951C358.584 224.776 354.422 223.894 348.548 223.307C342.673 222.622 334.546 222.083 324.168 221.691C316.335 221.3 309.334 220.565 303.166 219.488C297.095 218.314 291.955 216.698 287.745 214.642C283.633 212.488 280.499 209.844 278.345 206.711C276.289 203.48 275.261 199.661 275.261 195.255C275.261 188.597 277.366 183.016 281.576 178.513C285.787 173.911 292.102 170.435 300.522 168.085C309.041 165.637 319.615 164.413 332.246 164.413C350.947 164.413 365.242 167.547 375.131 173.813C385.02 179.981 389.915 188.744 389.817 200.102H360.15C359.661 195.794 356.87 192.612 351.779 190.556C346.687 188.402 339.785 187.325 331.071 187.325C322.65 187.325 316.139 188.059 311.537 189.528C307.033 190.996 304.781 193.542 304.781 197.165C304.781 198.731 305.369 200.053 306.544 201.13C307.719 202.207 309.775 203.137 312.712 203.921C315.65 204.606 319.713 205.193 324.902 205.683C330.189 206.173 336.798 206.613 344.729 207.005C353.052 207.396 360.248 208.18 366.319 209.355C372.487 210.432 377.53 212.047 381.446 214.201C385.46 216.257 388.447 218.901 390.405 222.132C392.363 225.265 393.342 229.084 393.342 233.588C393.342 240.246 391.335 245.827 387.321 250.331C383.404 254.834 377.236 258.261 368.815 260.611C360.395 262.863 349.38 263.989 335.77 263.989C327.448 263.989 319.909 263.353 313.153 262.08C306.495 260.807 300.571 259.045 295.382 256.793C290.291 254.443 286.031 251.75 282.604 248.715C279.178 245.68 276.632 242.4 274.967 238.875C273.303 235.35 272.52 231.727 272.618 228.007ZM515.75 261.492H487.552V189.087H515.75V261.492ZM488.873 225.216L489.167 231.385C488.873 233.147 488.09 235.399 486.817 238.141C485.642 240.784 483.88 243.575 481.53 246.512C479.278 249.449 476.439 252.191 473.012 254.737C469.585 257.282 465.571 259.387 460.969 261.052C456.367 262.716 451.129 263.549 445.254 263.549C439.869 263.549 434.68 262.961 429.686 261.786C424.79 260.611 420.384 258.653 416.468 255.911C412.552 253.17 409.467 249.498 407.215 244.896C405.061 240.295 403.984 234.518 403.984 227.566V189.087H432.036V224.188C432.036 229.28 432.868 233.245 434.533 236.084C436.295 238.826 438.89 240.784 442.317 241.959C445.841 243.036 450.198 243.575 455.388 243.575C460.969 243.575 465.962 242.596 470.368 240.637C474.872 238.679 478.691 236.28 481.824 233.441C484.957 230.601 487.307 227.86 488.873 225.216ZM527.978 189.087H556.03V261.492H527.978V189.087ZM600.53 187.178C605.817 187.178 610.811 187.765 615.511 188.94C620.21 190.115 624.372 192.073 627.994 194.815C631.617 197.556 634.456 201.179 636.513 205.683C638.667 210.187 639.744 215.768 639.744 222.426V261.492H611.545V226.244C611.545 219.488 609.832 214.593 606.405 211.558C602.978 208.522 596.956 207.005 588.34 207.005C583.151 207.005 578.255 207.788 573.654 209.355C569.15 210.921 565.233 212.831 561.904 215.082C558.575 217.237 556.225 219.44 554.855 221.691L554.561 215.376C554.952 212.831 556.176 209.991 558.233 206.858C560.387 203.627 563.324 200.543 567.045 197.605C570.863 194.57 575.514 192.073 580.997 190.115C586.578 188.157 593.089 187.178 600.53 187.178ZM682.482 187.178C687.769 187.178 692.763 187.765 697.462 188.94C702.162 190.115 706.323 192.073 709.946 194.815C713.569 197.556 716.408 201.179 718.464 205.683C720.618 210.187 721.695 215.768 721.695 222.426V261.492H693.644V226.244C693.644 219.488 691.881 214.593 688.357 211.558C684.93 208.522 678.908 207.005 670.292 207.005C665.103 207.005 660.207 207.788 655.605 209.355C651.101 210.921 647.185 212.831 643.856 215.082C640.527 217.237 638.177 219.44 636.806 221.691L636.513 214.348C636.904 212.096 638.226 209.453 640.478 206.417C642.73 203.284 645.814 200.298 649.731 197.458C653.745 194.521 658.494 192.073 663.977 190.115C669.46 188.157 675.628 187.178 682.482 187.178ZM733.867 189.087H761.919V261.492H733.867V189.087ZM806.419 187.178C811.707 187.178 816.7 187.765 821.4 188.94C826.1 190.115 830.261 192.073 833.883 194.815C837.506 197.556 840.346 201.179 842.402 205.683C844.556 210.187 845.633 215.768 845.633 222.426V261.492H817.434V226.244C817.434 219.488 815.721 214.593 812.294 211.558C808.867 208.522 802.846 207.005 794.229 207.005C789.04 207.005 784.145 207.788 779.543 209.355C775.039 210.921 771.122 212.831 767.793 215.082C764.464 217.237 762.114 219.44 760.744 221.691L760.45 215.376C760.842 212.831 762.066 209.991 764.122 206.858C766.276 203.627 769.213 200.543 772.934 197.605C776.752 194.57 781.403 192.073 786.886 190.115C792.467 188.157 798.978 187.178 806.419 187.178ZM888.371 187.178C893.658 187.178 898.652 187.765 903.352 188.94C908.051 190.115 912.213 192.073 915.835 194.815C919.458 197.556 922.297 201.179 924.354 205.683C926.508 210.187 927.585 215.768 927.585 222.426V261.492H899.533V226.244C899.533 219.488 897.771 214.593 894.246 211.558C890.819 208.522 884.797 207.005 876.181 207.005C870.992 207.005 866.096 207.788 861.494 209.355C856.991 210.921 853.074 212.831 849.745 215.082C846.416 217.237 844.066 219.44 842.696 221.691L842.402 214.348C842.793 212.096 844.115 209.453 846.367 206.417C848.619 203.284 851.703 200.298 855.62 197.458C859.634 194.521 864.383 192.073 869.866 190.115C875.349 188.157 881.517 187.178 888.371 187.178ZM1024.5 236.378H1052.11C1051.33 241.763 1048.83 246.512 1044.62 250.624C1040.51 254.639 1034.63 257.821 1027 260.171C1019.36 262.423 1009.81 263.549 998.356 263.549C985.921 263.549 975.151 262.227 966.045 259.583C956.94 256.94 949.841 252.827 944.75 247.246C939.756 241.567 937.259 234.322 937.259 225.51C937.259 216.698 939.707 209.453 944.603 203.774C949.498 198.095 956.45 193.934 965.458 191.29C974.564 188.548 985.432 187.178 998.062 187.178C1010.6 187.178 1020.92 188.597 1029.05 191.437C1037.18 194.178 1043.15 198.584 1046.97 204.655C1050.89 210.627 1052.7 218.509 1052.4 228.3H965.899C966.388 231.434 967.759 234.273 970.011 236.819C972.361 239.364 975.739 241.372 980.145 242.84C984.649 244.309 990.376 245.043 997.328 245.043C1004.67 245.043 1010.74 244.26 1015.54 242.693C1020.44 241.127 1023.42 239.022 1024.5 236.378ZM996.887 205.389C987.978 205.389 981.026 206.711 976.032 209.355C971.039 211.998 968.004 214.936 966.927 218.167H1024.94C1024.35 214.544 1021.76 211.509 1017.16 209.061C1012.65 206.613 1005.9 205.389 996.887 205.389ZM1062.46 189.087H1090.51V261.492H1062.46V189.087ZM1124.14 211.264C1118.17 211.264 1112.79 212.047 1107.99 213.614C1103.29 215.18 1099.37 217.09 1096.24 219.342C1093.11 221.594 1090.8 223.748 1089.34 225.804L1089.04 218.314C1089.24 216.649 1089.83 214.544 1090.8 211.998C1091.88 209.453 1093.3 206.76 1095.06 203.921C1096.92 200.983 1099.22 198.242 1101.97 195.696C1104.71 193.15 1107.89 191.094 1111.51 189.528C1115.23 187.961 1119.44 187.178 1124.14 187.178V211.264Z" fill="#0ACF00"/>
</svg>
