<?xml version="1.0" encoding="UTF-8"?>
<svg id="Warstwa_1" data-name="Warstwa 1" xmlns="http://www.w3.org/2000/svg" viewBox="0 0 1203.22 484.19">
  <defs>
    <style>
      .cls-1 {
        fill: #bcd35d;
      }

      .cls-2 {
        fill: #219eab;
      }

      .cls-3 {
        fill: #2b1932;
      }
    </style>
  </defs>
  <path class="cls-3" d="m447.43,199.56c-12.48,0-22.39,7.56-27.31,15.5-3.46-10.29-11.46-15.5-23.83-15.5-10.73,0-20.03,6.3-25.14,13.5v-11.67h-17.39v80.47h17.85v-36.87c0-3.09.1-6.66.87-9.72,2.34-8.88,9.18-19.25,20.75-19.25,9.97,0,11.97,6.87,11.97,17.94v47.89h17.85v-36.87c0-4.12.33-7.42,1.02-10.34,2.42-9.27,9.63-18.63,20.29-18.63,8.84,0,12.28,5.03,12.28,17.94v47.89h17.85v-51.11c0-20.71-9.11-31.2-27.07-31.2Z"/>
  <path class="cls-3" d="m528.58,199.56c-23.69,0-40.24,17.3-40.24,42.07s17.89,42.07,42.53,42.07c18.91,0,30.56-10.97,31.05-11.44l.84-.81-7.63-13.55-1.39,1.31c-.09.09-9.36,8.63-21.94,8.63-10.76,0-23.55-5.95-25.04-22.57h56.25l.14-1.35c.02-.18.47-4.54.47-6.58,0-22.6-14.08-37.79-35.03-37.79Zm-.31,14.79c9.73,0,16.17,6.37,17.08,16.75h-37.92c2.43-10.38,10.27-16.75,20.83-16.75Z"/>
  <path class="cls-3" d="m613.55,199.56c-23.69,0-40.24,17.3-40.24,42.07s17.89,42.07,42.53,42.07c18.91,0,30.56-10.97,31.05-11.44l.84-.81-7.63-13.55-1.39,1.31c-.09.09-9.36,8.63-21.94,8.63-10.76,0-23.55-5.95-25.04-22.57h56.25l.14-1.35c.02-.18.47-4.54.47-6.58,0-22.6-14.08-37.79-35.03-37.79Zm-.31,14.79c9.73,0,16.17,6.37,17.08,16.75h-37.91c2.43-10.38,10.27-16.75,20.83-16.75Z"/>
  <path class="cls-3" d="m702.95,266.04s-1.27.27-3.2.27c-6.86,0-15.04-2.77-15.04-15.95v-32.95h18.68v-14.94h-18.68v-22.35h-17.39v22.35h-10.56v14.94h10.11v34.63c0,27.47,21.82,30.44,31.2,30.44,3.13,0,5.33-.31,5.42-.32l1.29-.18v-16.33s-1.82.4-1.82.4Z"/>
  <rect class="cls-1" x="718.47" y="263.1" width="18.62" height="18.77"/>
  <rect class="cls-2" x="757.2" y="170.78" width="18" height="18.16"/>
  <path class="cls-2" d="m757.36,282.05c0,12.81-8.26,15.49-15.19,15.49-1.87,0-3.19-.14-3.2-.14l-1.66-.18v15.67l1.27.2c.09.01,2.14.32,5.43.32,9.34,0,31.05-2.97,31.05-30.44v-81.57h-17.7v80.66Z"/>
  <path class="cls-2" d="m824.19,234.08c-7.8-3.09-14.54-5.75-14.54-10.66,0-5.89,5.79-7.99,11.21-7.99,11.43,0,18.02,6.39,18.08,6.45l1.43,1.43,7.43-13.9-.73-.78c-.34-.37-8.61-9.05-26.06-9.05s-29.52,9.46-29.52,23.55c0,15.44,13.9,21.05,25.06,25.55,7.91,3.19,14.74,5.95,14.74,11.04,0,5.35-5.72,8.15-11.36,8.15-12.64,0-21.04-8.49-21.12-8.58l-1.28-1.33-8.9,13.07.8.88c.44.48,11.08,11.81,30.5,11.81,17.38,0,29.52-9.87,29.52-24.01,0-15.62-14.01-21.17-25.27-25.63Z"/>
</svg>